<svg width="542" height="1000" viewBox="0 0 542 1000" fill="none" xmlns="http://www.w3.org/2000/svg">
<g id="Group 30">
<g id="Group 2">
<g id="iPhone-X-Mockup">
<g id="phone">
<path id="body" fill-rule="evenodd" clip-rule="evenodd" d="M79.552 1.13892H462.018C498.699 1.13892 528.435 29.6096 528.435 64.73V935.27C528.435 970.39 498.699 998.861 462.018 998.861H79.552C42.8713 998.861 13.1357 970.39 13.1357 935.27V64.73C13.1357 29.6096 42.8713 1.13892 79.552 1.13892Z" fill="#213648"/>
<g id="frame" filter="url(#filter0_d_0_4910)">
<path id="reflect-frame-top" opacity="0.595562" fill-rule="evenodd" clip-rule="evenodd" d="M463.497 0H77.8451C59.8401 1.09791 43.2348 9.31387 28.0293 24.6479C37.8082 16.1118 55.2497 4.68913 78.3093 4.68913C78.3093 4.68913 447.66 4.68913 463.033 4.68913C486.093 4.68913 503.534 16.1118 513.313 24.6479C498.108 9.31387 481.502 1.09791 463.497 0Z" fill="url(#paint0_linear_0_4910)" fill-opacity="0.65"/>
<path id="reflect-frame-right" opacity="0.75" fill-rule="evenodd" clip-rule="evenodd" d="M517.999 925.342V69.9636C517.999 47.013 509.564 38.5289 504.532 33.081C499.5 27.6331 499.286 24.8545 506.516 28.9677C513.746 33.081 528.207 45.0611 528.207 69.9636V925.342C528.207 950.244 513.746 962.224 506.516 966.338C499.286 970.451 499.5 967.672 504.532 962.224C509.564 956.776 517.999 948.292 517.999 925.342Z" fill="url(#paint1_linear_0_4910)"/>
<path id="reflect-frame-left" opacity="0.75" fill-rule="evenodd" clip-rule="evenodd" d="M23.3439 925.342V69.9636C23.3439 47.013 31.7788 38.5289 36.8106 33.081C41.8425 27.6331 42.0566 24.8545 34.8268 28.9677C27.5969 33.081 13.136 45.0611 13.136 69.9636V925.342C13.136 950.244 27.5969 962.224 34.8268 966.338C42.0566 970.451 41.8425 967.672 36.8106 962.224C31.7788 956.776 23.3439 948.292 23.3439 925.342Z" fill="url(#paint2_linear_0_4910)"/>
</g>
<g id="controls" filter="url(#filter1_d_0_4910)">
<path id="vol+" fill-rule="evenodd" clip-rule="evenodd" d="M8 207.113C8 204.904 9.79086 203.113 12 203.113H13.9291C16.1382 203.113 17.9291 204.904 17.9291 207.113V327.814C17.9291 330.024 16.1382 331.814 13.9291 331.814H12C9.79086 331.814 8 330.024 8 327.814V207.113Z" fill="#2E423C"/>
<path id="power" fill-rule="evenodd" clip-rule="evenodd" d="M523.071 312.086C523.071 309.877 524.862 308.086 527.071 308.086H529C531.209 308.086 533 309.877 533 312.086V397.987C533 400.196 531.209 401.987 529 401.987H527.071C524.862 401.987 523.071 400.196 523.071 397.987V312.086Z" fill="#2E423C"/>
</g>
</g>
<g id="Screen" clip-path="url(#clip0_0_4910)" filter="url(#filter2_d_0_4910)">
<path id="Screen Mask" fill-rule="evenodd" clip-rule="evenodd" d="M225.352 24.8889L76.5396 24.8889C54.3307 24.8889 38.1484 40.0155 38.1484 59.7717V904.551C38.1484 930.311 63.153 953.135 91.4268 953.135H450.093C477.328 953.135 503.371 930.134 503.371 904.551V62.0553C503.371 38.376 485.792 25.0297 464.98 24.8889L313.808 24.8889C313.235 24.9828 302.851 29.2524 298.462 40.0155C294.073 50.7786 285.242 59.3586 275.573 59.3586H264.343C259.747 59.3586 247.647 54.8992 241.521 40.0155C235.394 25.1318 225.925 24.9828 225.352 24.8889Z" fill="white"/>
<mask id="mask0_0_4910" style="mask-type:alpha" maskUnits="userSpaceOnUse" x="38" y="24" width="466" height="930">
<path id="Screen Mask_2" fill-rule="evenodd" clip-rule="evenodd" d="M225.352 24.8889L76.5396 24.8889C54.3307 24.8889 38.1484 40.0155 38.1484 59.7717V904.551C38.1484 930.311 63.153 953.135 91.4268 953.135H450.093C477.328 953.135 503.371 930.134 503.371 904.551V62.0553C503.371 38.376 485.792 25.0297 464.98 24.8889L313.808 24.8889C313.235 24.9828 302.851 29.2524 298.462 40.0155C294.073 50.7786 285.242 59.3586 275.573 59.3586H264.343C259.747 59.3586 247.647 54.8992 241.521 40.0155C235.394 25.1318 225.925 24.9828 225.352 24.8889Z" fill="white"/>
</mask>
<g mask="url(#mask0_0_4910)">
<rect id="Rectangle" x="38" y="24.8889" width="466" height="930" fill="url(#paint3_linear_0_4910)"/>
<path id="12:49" d="M197.008 282V247.344H188.752V242.064C191.397 242.064 193.531 241.819 195.152 241.328C196.795 240.816 198.021 240.091 198.832 239.152C199.643 238.192 200.123 237.051 200.272 235.728H206.48V282H197.008ZM216.991 282V277.392V275.024C216.991 272.677 217.428 270.651 218.303 268.944C219.178 267.216 220.33 265.723 221.759 264.464C223.21 263.184 224.788 262.064 226.495 261.104C228.223 260.144 229.951 259.237 231.679 258.384C233.407 257.531 234.986 256.677 236.415 255.824C237.866 254.949 239.028 253.979 239.903 252.912C240.778 251.845 241.215 250.587 241.215 249.136C241.215 247.28 240.564 245.765 239.263 244.592C237.983 243.419 236.223 242.832 233.983 242.832C231.658 242.832 229.684 243.504 228.063 244.848C226.442 246.192 225.439 248.219 225.055 250.928H216.127C216.17 247.984 216.852 245.317 218.175 242.928C219.519 240.517 221.524 238.608 224.191 237.2C226.858 235.792 230.207 235.088 234.239 235.088C237.695 235.088 240.671 235.675 243.167 236.848C245.684 238.021 247.626 239.653 248.991 241.744C250.356 243.835 251.039 246.277 251.039 249.072C251.039 251.397 250.612 253.403 249.759 255.088C248.906 256.773 247.775 258.213 246.367 259.408C244.959 260.603 243.412 261.648 241.727 262.544C240.042 263.44 238.356 264.272 236.671 265.04C235.007 265.808 233.471 266.597 232.063 267.408C230.655 268.197 229.524 269.093 228.671 270.096C227.818 271.099 227.391 272.304 227.391 273.712V274.128H250.975V282H216.991ZM267.408 249.712V259.728H257.168V249.712H267.408ZM267.408 271.824V281.808H257.168V271.824H267.408ZM294.903 235.728H304.087V263.92H311.223V271.76H304.087V282H295.095L295.127 271.76H273.815V264.08L294.903 235.728ZM282.455 263.92H295.127V246.96L282.455 263.92ZM332.871 282.704C329.991 282.704 327.303 282.149 324.807 281.04C322.311 279.931 320.273 278.373 318.695 276.368C317.116 274.341 316.231 271.973 316.039 269.264H324.935C325.319 271.056 326.172 272.517 327.495 273.648C328.817 274.757 330.481 275.312 332.487 275.312C334.705 275.312 336.647 274.789 338.311 273.744C339.996 272.699 341.255 271.035 342.087 268.752C342.94 266.469 343.239 263.483 342.983 259.792C342.385 260.923 341.553 261.915 340.487 262.768C339.441 263.6 338.215 264.251 336.807 264.72C335.399 265.168 333.831 265.392 332.103 265.392C328.967 265.392 326.183 264.805 323.751 263.632C321.34 262.437 319.441 260.752 318.055 258.576C316.689 256.379 316.007 253.776 316.007 250.768C316.007 247.739 316.732 245.04 318.183 242.672C319.633 240.304 321.66 238.448 324.263 237.104C326.865 235.76 329.916 235.088 333.415 235.088C337.34 235.088 340.721 236.027 343.559 237.904C346.417 239.76 348.604 242.405 350.119 245.84C351.655 249.253 352.423 253.275 352.423 257.904C352.423 263.429 351.633 268.037 350.055 271.728C348.497 275.397 346.257 278.149 343.335 279.984C340.412 281.797 336.924 282.704 332.871 282.704ZM333.703 257.968C335.004 257.968 336.263 257.68 337.479 257.104C338.716 256.507 339.729 255.76 340.519 254.864C341.308 253.968 341.703 253.04 341.703 252.08C341.724 250.011 341.393 248.24 340.711 246.768C340.049 245.275 339.111 244.133 337.895 243.344C336.7 242.555 335.303 242.16 333.703 242.16C332.231 242.16 330.919 242.501 329.767 243.184C328.615 243.867 327.708 244.827 327.047 246.064C326.385 247.301 326.055 248.731 326.055 250.352C326.055 252.763 326.759 254.64 328.167 255.984C329.575 257.307 331.42 257.968 333.703 257.968Z" fill="white"/>
</g>
</g>
</g>
</g>
<g id="Group 29" clip-path="url(#clip1_0_4910)">
<g id="Rectangle_2" filter="url(#filter3_d_0_4910)">
<rect x="52" y="334" width="436" height="174" rx="5" fill="#FBFCFE"/>
</g>
<g id="Group 28" clip-path="url(#clip2_0_4910)">
<path id="PayAPI" d="M85.62 386V371.54H90.94C91.9933 371.54 92.9367 371.723 93.77 372.09C94.6033 372.45 95.26 372.983 95.74 373.69C96.2267 374.397 96.47 375.26 96.47 376.28C96.47 377.24 96.2567 378.06 95.83 378.74C95.4033 379.42 94.8033 379.94 94.03 380.3C93.2633 380.66 92.36 380.84 91.32 380.84H88.56V386H85.62ZM88.53 378.58H91.24C91.9733 378.58 92.5733 378.347 93.04 377.88C93.5067 377.407 93.74 376.823 93.74 376.13C93.74 375.41 93.4933 374.84 93 374.42C92.5067 373.993 91.9067 373.78 91.2 373.78H88.53V378.58ZM101.023 386.2C100.363 386.2 99.7701 386.077 99.2434 385.83C98.7168 385.583 98.3001 385.227 97.9934 384.76C97.6868 384.287 97.5334 383.713 97.5334 383.04C97.5334 381.907 97.9568 381.047 98.8034 380.46C99.6501 379.867 100.987 379.56 102.813 379.54L104.103 379.52V378.9C104.103 378.427 103.963 378.063 103.683 377.81C103.41 377.55 102.983 377.423 102.403 377.43C101.977 377.437 101.57 377.537 101.183 377.73C100.803 377.923 100.543 378.26 100.403 378.74H97.9734C98.0134 377.993 98.2301 377.38 98.6234 376.9C99.0168 376.413 99.5501 376.053 100.223 375.82C100.903 375.58 101.673 375.46 102.533 375.46C103.593 375.46 104.443 375.593 105.083 375.86C105.723 376.12 106.187 376.497 106.473 376.99C106.76 377.477 106.903 378.057 106.903 378.73V386H104.463L104.223 384.22C103.87 384.967 103.427 385.483 102.893 385.77C102.367 386.057 101.743 386.2 101.023 386.2ZM102.003 384.28C102.27 384.28 102.527 384.233 102.773 384.14C103.027 384.04 103.25 383.91 103.443 383.75C103.643 383.583 103.803 383.397 103.923 383.19C104.043 382.983 104.103 382.77 104.103 382.55V381.02L103.053 381.04C102.567 381.047 102.113 381.107 101.693 381.22C101.273 381.327 100.933 381.503 100.673 381.75C100.42 381.997 100.293 382.33 100.293 382.75C100.293 383.23 100.46 383.607 100.793 383.88C101.127 384.147 101.53 384.28 102.003 384.28ZM110.727 389.3C110.021 389.3 109.521 389.24 109.227 389.12C108.941 389.007 108.797 388.95 108.797 388.95V387.09L109.817 387.13C110.264 387.157 110.624 387.133 110.897 387.06C111.171 386.993 111.377 386.903 111.517 386.79C111.664 386.677 111.767 386.557 111.827 386.43C111.887 386.31 111.931 386.213 111.957 386.14L112.147 385.57L108.127 375.66H111.017L113.497 382.4L116.007 375.66H118.857L114.667 386.06C114.307 386.94 113.927 387.613 113.527 388.08C113.127 388.547 112.694 388.867 112.227 389.04C111.767 389.213 111.267 389.3 110.727 389.3ZM118.456 386L123.636 371.54H126.716L131.886 386H128.976L127.796 382.65H122.596L121.386 386H118.456ZM123.246 380.1H127.096L125.186 374.36L123.246 380.1ZM134.058 386V371.54H139.378C140.431 371.54 141.374 371.723 142.208 372.09C143.041 372.45 143.698 372.983 144.178 373.69C144.664 374.397 144.908 375.26 144.908 376.28C144.908 377.24 144.694 378.06 144.268 378.74C143.841 379.42 143.241 379.94 142.468 380.3C141.701 380.66 140.798 380.84 139.758 380.84H136.998V386H134.058ZM136.968 378.58H139.678C140.411 378.58 141.011 378.347 141.478 377.88C141.944 377.407 142.178 376.823 142.178 376.13C142.178 375.41 141.931 374.84 141.438 374.42C140.944 373.993 140.344 373.78 139.638 373.78H136.968V378.58ZM147.104 371.54H150.014V386H147.104V371.54Z" fill="#BA4270"/>
<path id="Just Now" opacity="0.5" d="M379.218 382.59C379.218 383.357 379.131 384.01 378.958 384.55C378.785 385.09 378.475 385.5 378.028 385.78C377.588 386.06 376.961 386.2 376.148 386.2C375.635 386.2 375.151 386.14 374.698 386.02C374.251 385.9 373.955 385.81 373.808 385.75L373.938 383.98C374.145 384.053 374.381 384.147 374.648 384.26C374.921 384.367 375.258 384.42 375.658 384.42C376.311 384.42 376.758 384.24 376.998 383.88C377.245 383.52 377.368 382.913 377.368 382.06V371.54H379.218V382.59ZM386.081 386.2C385.541 386.193 385.031 386.117 384.551 385.97C384.078 385.817 383.658 385.593 383.291 385.3C382.925 385.007 382.635 384.643 382.421 384.21C382.215 383.77 382.111 383.26 382.111 382.68V375.66H383.961V382.49C383.961 383.163 384.168 383.71 384.581 384.13C385.001 384.55 385.631 384.76 386.471 384.76C387.231 384.76 387.841 384.563 388.301 384.17C388.768 383.77 389.001 383.177 389.001 382.39V375.66H390.841V386H389.371L389.181 384.02C389.055 384.54 388.838 384.96 388.531 385.28C388.231 385.6 387.868 385.837 387.441 385.99C387.021 386.137 386.568 386.207 386.081 386.2ZM397.397 386.2C396.677 386.2 396.007 386.09 395.387 385.87C394.773 385.643 394.263 385.293 393.857 384.82C393.45 384.34 393.193 383.73 393.087 382.99H394.767C394.86 383.397 395.027 383.737 395.267 384.01C395.513 384.277 395.82 384.48 396.187 384.62C396.553 384.753 396.953 384.82 397.387 384.82C398.08 384.82 398.64 384.69 399.067 384.43C399.493 384.17 399.707 383.77 399.707 383.23C399.707 382.85 399.593 382.547 399.367 382.32C399.147 382.087 398.803 381.917 398.337 381.81L396.197 381.28C395.363 381.08 394.697 380.767 394.197 380.34C393.697 379.913 393.447 379.317 393.447 378.55C393.44 377.943 393.583 377.41 393.877 376.95C394.17 376.49 394.61 376.127 395.197 375.86C395.783 375.593 396.513 375.46 397.387 375.46C398.507 375.46 399.41 375.713 400.097 376.22C400.79 376.72 401.15 377.457 401.177 378.43H399.547C399.48 377.937 399.257 377.547 398.877 377.26C398.503 376.967 398 376.82 397.367 376.82C396.707 376.82 396.17 376.953 395.757 377.22C395.343 377.48 395.137 377.887 395.137 378.44C395.137 378.807 395.283 379.097 395.577 379.31C395.87 379.517 396.303 379.69 396.877 379.83L398.947 380.35C399.427 380.477 399.82 380.643 400.127 380.85C400.44 381.057 400.687 381.287 400.867 381.54C401.053 381.793 401.183 382.06 401.257 382.34C401.337 382.613 401.377 382.877 401.377 383.13C401.377 383.763 401.217 384.31 400.897 384.77C400.583 385.223 400.13 385.577 399.537 385.83C398.95 386.077 398.237 386.2 397.397 386.2ZM409 377.01H406.67V383.44C406.67 383.807 406.706 384.077 406.78 384.25C406.86 384.417 406.99 384.523 407.17 384.57C407.356 384.617 407.61 384.64 407.93 384.64H409.06V385.88C408.933 385.927 408.74 385.967 408.48 386C408.226 386.033 407.91 386.05 407.53 386.05C406.816 386.05 406.263 385.953 405.87 385.76C405.476 385.567 405.2 385.28 405.04 384.9C404.886 384.52 404.81 384.053 404.81 383.5V377.01H403.13V375.66H404.86L405.31 372.65H406.67V375.65H409V377.01ZM426.056 371.54H427.906V386H426.256L418.496 374.6V386H416.646V371.54H418.416L426.056 382.78V371.54ZM435.317 386.2C434.364 386.2 433.531 385.997 432.817 385.59C432.104 385.177 431.551 384.573 431.157 383.78C430.764 382.987 430.567 382.017 430.567 380.87C430.567 379.79 430.751 378.843 431.117 378.03C431.484 377.217 432.021 376.587 432.727 376.14C433.441 375.687 434.304 375.46 435.317 375.46C436.271 375.46 437.097 375.67 437.797 376.09C438.504 376.503 439.051 377.113 439.437 377.92C439.824 378.727 440.017 379.71 440.017 380.87C440.017 381.923 439.837 382.85 439.477 383.65C439.124 384.45 438.597 385.077 437.897 385.53C437.204 385.977 436.344 386.2 435.317 386.2ZM435.317 384.74C435.937 384.74 436.461 384.583 436.887 384.27C437.314 383.957 437.637 383.507 437.857 382.92C438.077 382.333 438.187 381.637 438.187 380.83C438.187 380.09 438.091 379.427 437.897 378.84C437.704 378.247 437.394 377.777 436.967 377.43C436.547 377.083 435.997 376.91 435.317 376.91C434.691 376.91 434.161 377.067 433.727 377.38C433.294 377.687 432.964 378.133 432.737 378.72C432.517 379.307 432.407 380.01 432.407 380.83C432.407 381.557 432.507 382.217 432.707 382.81C432.907 383.403 433.221 383.873 433.647 384.22C434.074 384.567 434.631 384.74 435.317 384.74ZM455.667 375.66L452.537 386H450.717L448.357 378.37L446.117 386H444.307L441.117 375.66H442.827L445.197 383.61H445.357L447.687 375.66H449.087L451.507 383.59H451.667L453.937 375.66H455.667Z" fill="#36536B"/>
</g>
<path id="The payment has been" d="M84.46 405.24V403.54H95.4V405.24H90.99V418H89.13V405.24H84.46ZM97.405 418V403.14H99.205V409.18C99.3783 408.893 99.6117 408.627 99.905 408.38C100.198 408.127 100.555 407.923 100.975 407.77C101.395 407.61 101.882 407.53 102.435 407.53C103.108 407.53 103.718 407.657 104.265 407.91C104.812 408.157 105.245 408.51 105.565 408.97C105.885 409.43 106.045 409.977 106.045 410.61V418H104.195V410.98C104.195 410.36 103.982 409.883 103.555 409.55C103.135 409.21 102.585 409.04 101.905 409.04C101.445 409.04 101.012 409.117 100.605 409.27C100.198 409.417 99.8683 409.643 99.615 409.95C99.3683 410.25 99.245 410.633 99.245 411.1V418H97.405ZM110.248 413.26C110.248 413.913 110.355 414.507 110.568 415.04C110.788 415.567 111.118 415.987 111.558 416.3C112.005 416.613 112.562 416.77 113.228 416.77C113.888 416.77 114.455 416.617 114.928 416.31C115.408 416.003 115.715 415.56 115.848 414.98H117.598C117.472 415.68 117.192 416.27 116.758 416.75C116.325 417.23 115.802 417.593 115.188 417.84C114.575 418.08 113.935 418.2 113.268 418.2C112.302 418.2 111.452 417.99 110.718 417.57C109.985 417.15 109.412 416.547 108.998 415.76C108.585 414.973 108.378 414.03 108.378 412.93C108.378 411.843 108.565 410.89 108.938 410.07C109.312 409.25 109.852 408.61 110.558 408.15C111.272 407.69 112.128 407.46 113.128 407.46C114.102 407.46 114.925 407.67 115.598 408.09C116.272 408.51 116.782 409.103 117.128 409.87C117.482 410.63 117.658 411.533 117.658 412.58V413.26H110.248ZM110.258 412.01H115.878C115.878 411.417 115.778 410.883 115.578 410.41C115.378 409.93 115.072 409.553 114.658 409.28C114.252 409 113.738 408.86 113.118 408.86C112.472 408.86 111.935 409.017 111.508 409.33C111.088 409.637 110.772 410.033 110.558 410.52C110.352 411 110.252 411.497 110.258 412.01ZM124.671 421.22V407.66H126.511L126.531 409.46C126.651 409.247 126.804 409.023 126.991 408.79C127.184 408.557 127.417 408.34 127.691 408.14C127.971 407.94 128.294 407.777 128.661 407.65C129.034 407.523 129.457 407.46 129.931 407.46C130.757 407.46 131.484 407.65 132.111 408.03C132.744 408.403 133.237 408.977 133.591 409.75C133.944 410.523 134.121 411.503 134.121 412.69C134.121 413.877 133.947 414.88 133.601 415.7C133.261 416.513 132.767 417.133 132.121 417.56C131.474 417.987 130.694 418.2 129.781 418.2C129.321 418.2 128.911 418.133 128.551 418C128.197 417.873 127.887 417.707 127.621 417.5C127.361 417.287 127.141 417.06 126.961 416.82C126.787 416.58 126.644 416.35 126.531 416.13V421.22H124.671ZM129.431 416.76C130.284 416.76 130.981 416.437 131.521 415.79C132.061 415.137 132.331 414.123 132.331 412.75C132.331 411.57 132.084 410.633 131.591 409.94C131.097 409.247 130.377 408.9 129.431 408.9C128.471 408.9 127.744 409.257 127.251 409.97C126.757 410.677 126.511 411.603 126.511 412.75C126.511 413.49 126.621 414.163 126.841 414.77C127.061 415.377 127.387 415.86 127.821 416.22C128.254 416.58 128.791 416.76 129.431 416.76ZM139.269 418.2C138.602 418.2 138.012 418.083 137.499 417.85C136.986 417.61 136.582 417.267 136.289 416.82C136.002 416.373 135.859 415.833 135.859 415.2C135.859 414.053 136.259 413.2 137.059 412.64C137.859 412.08 139.142 411.78 140.909 411.74L142.759 411.69V410.88C142.759 410.247 142.569 409.747 142.189 409.38C141.809 409.007 141.219 408.82 140.419 408.82C139.826 408.827 139.302 408.967 138.849 409.24C138.402 409.513 138.112 409.96 137.979 410.58H136.349C136.389 409.907 136.579 409.34 136.919 408.88C137.259 408.413 137.732 408.06 138.339 407.82C138.952 407.58 139.676 407.46 140.509 407.46C141.409 407.46 142.156 407.587 142.749 407.84C143.349 408.093 143.796 408.467 144.089 408.96C144.389 409.453 144.539 410.06 144.539 410.78V418H142.959L142.829 416.06C142.429 416.867 141.919 417.427 141.299 417.74C140.686 418.047 140.009 418.2 139.269 418.2ZM139.829 416.87C140.176 416.87 140.519 416.807 140.859 416.68C141.206 416.553 141.522 416.383 141.809 416.17C142.096 415.95 142.322 415.707 142.489 415.44C142.662 415.167 142.752 414.887 142.759 414.6V412.83L141.219 412.86C140.432 412.873 139.772 412.953 139.239 413.1C138.712 413.247 138.316 413.477 138.049 413.79C137.789 414.103 137.659 414.513 137.659 415.02C137.659 415.6 137.859 416.053 138.259 416.38C138.666 416.707 139.189 416.87 139.829 416.87ZM148.386 421.3C147.779 421.3 147.363 421.257 147.136 421.17C146.909 421.083 146.796 421.04 146.796 421.04V419.84L147.846 419.86C148.233 419.873 148.553 419.847 148.806 419.78C149.059 419.713 149.263 419.623 149.416 419.51C149.569 419.397 149.686 419.27 149.766 419.13C149.853 418.99 149.923 418.857 149.976 418.73L150.336 417.75L146.296 407.66H148.166L151.216 415.64L154.246 407.66H156.056L151.696 418.78C151.429 419.433 151.129 419.943 150.796 420.31C150.469 420.677 150.103 420.933 149.696 421.08C149.296 421.227 148.859 421.3 148.386 421.3ZM158.03 418V407.66H159.81V409.16C160.097 408.707 160.49 408.31 160.99 407.97C161.49 407.63 162.14 407.46 162.94 407.46C163.313 407.46 163.693 407.523 164.08 407.65C164.473 407.777 164.833 407.967 165.16 408.22C165.487 408.473 165.74 408.783 165.92 409.15C166.24 408.643 166.673 408.237 167.22 407.93C167.767 407.617 168.383 407.46 169.07 407.46C169.43 407.46 169.807 407.517 170.2 407.63C170.593 407.737 170.957 407.93 171.29 408.21C171.63 408.483 171.907 408.867 172.12 409.36C172.333 409.847 172.44 410.473 172.44 411.24V418H170.58V411.42C170.58 410.793 170.48 410.31 170.28 409.97C170.08 409.623 169.817 409.38 169.49 409.24C169.17 409.1 168.827 409.03 168.46 409.03C168.14 409.03 167.8 409.093 167.44 409.22C167.08 409.347 166.773 409.56 166.52 409.86C166.267 410.16 166.14 410.57 166.14 411.09V418H164.3V410.88C164.3 410.473 164.19 410.133 163.97 409.86C163.757 409.587 163.487 409.38 163.16 409.24C162.84 409.1 162.52 409.03 162.2 409.03C161.847 409.03 161.49 409.1 161.13 409.24C160.777 409.38 160.477 409.603 160.23 409.91C159.99 410.21 159.87 410.603 159.87 411.09V418H158.03ZM176.655 413.26C176.655 413.913 176.761 414.507 176.975 415.04C177.195 415.567 177.525 415.987 177.965 416.3C178.411 416.613 178.968 416.77 179.635 416.77C180.295 416.77 180.861 416.617 181.335 416.31C181.815 416.003 182.121 415.56 182.255 414.98H184.005C183.878 415.68 183.598 416.27 183.165 416.75C182.731 417.23 182.208 417.593 181.595 417.84C180.981 418.08 180.341 418.2 179.675 418.2C178.708 418.2 177.858 417.99 177.125 417.57C176.391 417.15 175.818 416.547 175.405 415.76C174.991 414.973 174.785 414.03 174.785 412.93C174.785 411.843 174.971 410.89 175.345 410.07C175.718 409.25 176.258 408.61 176.965 408.15C177.678 407.69 178.535 407.46 179.535 407.46C180.508 407.46 181.331 407.67 182.005 408.09C182.678 408.51 183.188 409.103 183.535 409.87C183.888 410.63 184.065 411.533 184.065 412.58V413.26H176.655ZM176.665 412.01H182.285C182.285 411.417 182.185 410.883 181.985 410.41C181.785 409.93 181.478 409.553 181.065 409.28C180.658 409 180.145 408.86 179.525 408.86C178.878 408.86 178.341 409.017 177.915 409.33C177.495 409.637 177.178 410.033 176.965 410.52C176.758 411 176.658 411.497 176.665 412.01ZM186.604 418V407.66H188.394V409.16C188.561 408.873 188.791 408.603 189.084 408.35C189.384 408.097 189.744 407.893 190.164 407.74C190.591 407.587 191.081 407.51 191.634 407.51C192.288 407.51 192.888 407.64 193.434 407.9C193.988 408.16 194.428 408.567 194.754 409.12C195.088 409.667 195.254 410.373 195.254 411.24V418H193.404V411.42C193.404 410.613 193.191 410.017 192.764 409.63C192.344 409.237 191.798 409.04 191.124 409.04C190.658 409.04 190.221 409.117 189.814 409.27C189.408 409.417 189.078 409.643 188.824 409.95C188.571 410.25 188.444 410.63 188.444 411.09V418H186.604ZM202.912 409.01H200.582V415.44C200.582 415.807 200.619 416.077 200.692 416.25C200.772 416.417 200.902 416.523 201.082 416.57C201.269 416.617 201.522 416.64 201.842 416.64H202.972V417.88C202.846 417.927 202.652 417.967 202.392 418C202.139 418.033 201.822 418.05 201.442 418.05C200.729 418.05 200.176 417.953 199.782 417.76C199.389 417.567 199.112 417.28 198.952 416.9C198.799 416.52 198.722 416.053 198.722 415.5V409.01H197.042V407.66H198.772L199.222 404.65H200.582V407.65H202.912V409.01ZM210.178 418V403.14H211.978V409.18C212.152 408.893 212.385 408.627 212.678 408.38C212.972 408.127 213.328 407.923 213.748 407.77C214.168 407.61 214.655 407.53 215.208 407.53C215.882 407.53 216.492 407.657 217.038 407.91C217.585 408.157 218.018 408.51 218.338 408.97C218.658 409.43 218.818 409.977 218.818 410.61V418H216.968V410.98C216.968 410.36 216.755 409.883 216.328 409.55C215.908 409.21 215.358 409.04 214.678 409.04C214.218 409.04 213.785 409.117 213.378 409.27C212.972 409.417 212.642 409.643 212.388 409.95C212.142 410.25 212.018 410.633 212.018 411.1V418H210.178ZM224.523 418.2C223.856 418.2 223.266 418.083 222.753 417.85C222.239 417.61 221.836 417.267 221.543 416.82C221.256 416.373 221.113 415.833 221.113 415.2C221.113 414.053 221.513 413.2 222.313 412.64C223.113 412.08 224.396 411.78 226.163 411.74L228.013 411.69V410.88C228.013 410.247 227.823 409.747 227.443 409.38C227.063 409.007 226.473 408.82 225.673 408.82C225.079 408.827 224.556 408.967 224.103 409.24C223.656 409.513 223.366 409.96 223.233 410.58H221.603C221.643 409.907 221.833 409.34 222.173 408.88C222.513 408.413 222.986 408.06 223.593 407.82C224.206 407.58 224.929 407.46 225.763 407.46C226.663 407.46 227.409 407.587 228.003 407.84C228.603 408.093 229.049 408.467 229.343 408.96C229.643 409.453 229.793 410.06 229.793 410.78V418H228.213L228.083 416.06C227.683 416.867 227.173 417.427 226.553 417.74C225.939 418.047 225.263 418.2 224.523 418.2ZM225.083 416.87C225.429 416.87 225.773 416.807 226.113 416.68C226.459 416.553 226.776 416.383 227.063 416.17C227.349 415.95 227.576 415.707 227.743 415.44C227.916 415.167 228.006 414.887 228.013 414.6V412.83L226.473 412.86C225.686 412.873 225.026 412.953 224.493 413.1C223.966 413.247 223.569 413.477 223.303 413.79C223.043 414.103 222.913 414.513 222.913 415.02C222.913 415.6 223.113 416.053 223.513 416.38C223.919 416.707 224.443 416.87 225.083 416.87ZM236.446 418.2C235.726 418.2 235.056 418.09 234.436 417.87C233.823 417.643 233.313 417.293 232.906 416.82C232.499 416.34 232.243 415.73 232.136 414.99H233.816C233.909 415.397 234.076 415.737 234.316 416.01C234.563 416.277 234.869 416.48 235.236 416.62C235.603 416.753 236.003 416.82 236.436 416.82C237.129 416.82 237.689 416.69 238.116 416.43C238.543 416.17 238.756 415.77 238.756 415.23C238.756 414.85 238.643 414.547 238.416 414.32C238.196 414.087 237.853 413.917 237.386 413.81L235.246 413.28C234.413 413.08 233.746 412.767 233.246 412.34C232.746 411.913 232.496 411.317 232.496 410.55C232.489 409.943 232.633 409.41 232.926 408.95C233.219 408.49 233.659 408.127 234.246 407.86C234.833 407.593 235.563 407.46 236.436 407.46C237.556 407.46 238.459 407.713 239.146 408.22C239.839 408.72 240.199 409.457 240.226 410.43H238.596C238.529 409.937 238.306 409.547 237.926 409.26C237.553 408.967 237.049 408.82 236.416 408.82C235.756 408.82 235.219 408.953 234.806 409.22C234.393 409.48 234.186 409.887 234.186 410.44C234.186 410.807 234.333 411.097 234.626 411.31C234.919 411.517 235.353 411.69 235.926 411.83L237.996 412.35C238.476 412.477 238.869 412.643 239.176 412.85C239.489 413.057 239.736 413.287 239.916 413.54C240.103 413.793 240.233 414.06 240.306 414.34C240.386 414.613 240.426 414.877 240.426 415.13C240.426 415.763 240.266 416.31 239.946 416.77C239.633 417.223 239.179 417.577 238.586 417.83C237.999 418.077 237.286 418.2 236.446 418.2ZM252.652 418.2C252.045 418.2 251.532 418.12 251.112 417.96C250.698 417.8 250.358 417.597 250.092 417.35C249.825 417.097 249.618 416.84 249.472 416.58C249.325 416.313 249.218 416.08 249.152 415.88L248.952 418H247.542V403.14H249.402V409.3C249.488 409.127 249.618 408.937 249.792 408.73C249.972 408.523 250.202 408.323 250.482 408.13C250.762 407.937 251.092 407.777 251.472 407.65C251.858 407.523 252.298 407.46 252.792 407.46C254.085 407.46 255.112 407.91 255.872 408.81C256.638 409.71 257.022 411.037 257.022 412.79C257.022 413.877 256.858 414.827 256.532 415.64C256.205 416.447 255.718 417.077 255.072 417.53C254.425 417.977 253.618 418.2 252.652 418.2ZM252.322 416.78C253.162 416.78 253.845 416.457 254.372 415.81C254.898 415.157 255.162 414.12 255.162 412.7C255.162 411.493 254.915 410.56 254.422 409.9C253.935 409.233 253.222 408.9 252.282 408.9C251.595 408.9 251.042 409.05 250.622 409.35C250.208 409.643 249.902 410.073 249.702 410.64C249.508 411.207 249.408 411.893 249.402 412.7C249.402 414.147 249.625 415.19 250.072 415.83C250.525 416.463 251.275 416.78 252.322 416.78ZM260.756 413.26C260.756 413.913 260.863 414.507 261.076 415.04C261.296 415.567 261.626 415.987 262.066 416.3C262.513 416.613 263.07 416.77 263.736 416.77C264.396 416.77 264.963 416.617 265.436 416.31C265.916 416.003 266.223 415.56 266.356 414.98H268.106C267.98 415.68 267.7 416.27 267.266 416.75C266.833 417.23 266.31 417.593 265.696 417.84C265.083 418.08 264.443 418.2 263.776 418.2C262.81 418.2 261.96 417.99 261.226 417.57C260.493 417.15 259.92 416.547 259.506 415.76C259.093 414.973 258.886 414.03 258.886 412.93C258.886 411.843 259.073 410.89 259.446 410.07C259.82 409.25 260.36 408.61 261.066 408.15C261.78 407.69 262.636 407.46 263.636 407.46C264.61 407.46 265.433 407.67 266.106 408.09C266.78 408.51 267.29 409.103 267.636 409.87C267.99 410.63 268.166 411.533 268.166 412.58V413.26H260.756ZM260.766 412.01H266.386C266.386 411.417 266.286 410.883 266.086 410.41C265.886 409.93 265.58 409.553 265.166 409.28C264.76 409 264.246 408.86 263.626 408.86C262.98 408.86 262.443 409.017 262.016 409.33C261.596 409.637 261.28 410.033 261.066 410.52C260.86 411 260.76 411.497 260.766 412.01ZM272.026 413.26C272.026 413.913 272.132 414.507 272.346 415.04C272.566 415.567 272.896 415.987 273.336 416.3C273.782 416.613 274.339 416.77 275.006 416.77C275.666 416.77 276.232 416.617 276.706 416.31C277.186 416.003 277.492 415.56 277.626 414.98H279.376C279.249 415.68 278.969 416.27 278.536 416.75C278.102 417.23 277.579 417.593 276.966 417.84C276.352 418.08 275.712 418.2 275.046 418.2C274.079 418.2 273.229 417.99 272.496 417.57C271.762 417.15 271.189 416.547 270.776 415.76C270.362 414.973 270.156 414.03 270.156 412.93C270.156 411.843 270.342 410.89 270.716 410.07C271.089 409.25 271.629 408.61 272.336 408.15C273.049 407.69 273.906 407.46 274.906 407.46C275.879 407.46 276.702 407.67 277.376 408.09C278.049 408.51 278.559 409.103 278.906 409.87C279.259 410.63 279.436 411.533 279.436 412.58V413.26H272.026ZM272.036 412.01H277.656C277.656 411.417 277.556 410.883 277.356 410.41C277.156 409.93 276.849 409.553 276.436 409.28C276.029 409 275.516 408.86 274.896 408.86C274.249 408.86 273.712 409.017 273.286 409.33C272.866 409.637 272.549 410.033 272.336 410.52C272.129 411 272.029 411.497 272.036 412.01ZM281.975 418V407.66H283.765V409.16C283.932 408.873 284.162 408.603 284.455 408.35C284.755 408.097 285.115 407.893 285.535 407.74C285.962 407.587 286.452 407.51 287.005 407.51C287.659 407.51 288.259 407.64 288.805 407.9C289.359 408.16 289.799 408.567 290.125 409.12C290.459 409.667 290.625 410.373 290.625 411.24V418H288.775V411.42C288.775 410.613 288.562 410.017 288.135 409.63C287.715 409.237 287.169 409.04 286.495 409.04C286.029 409.04 285.592 409.117 285.185 409.27C284.779 409.417 284.449 409.643 284.195 409.95C283.942 410.25 283.815 410.63 283.815 411.09V418H281.975ZM298.128 421.22V407.66H299.968L299.988 409.46C300.108 409.247 300.261 409.023 300.448 408.79C300.641 408.557 300.874 408.34 301.148 408.14C301.428 407.94 301.751 407.777 302.118 407.65C302.491 407.523 302.914 407.46 303.388 407.46C304.214 407.46 304.941 407.65 305.568 408.03C306.201 408.403 306.694 408.977 307.048 409.75C307.401 410.523 307.578 411.503 307.578 412.69C307.578 413.877 307.404 414.88 307.058 415.7C306.718 416.513 306.224 417.133 305.578 417.56C304.931 417.987 304.151 418.2 303.238 418.2C302.778 418.2 302.368 418.133 302.008 418C301.654 417.873 301.344 417.707 301.078 417.5C300.818 417.287 300.598 417.06 300.418 416.82C300.244 416.58 300.101 416.35 299.988 416.13V421.22H298.128ZM302.888 416.76C303.741 416.76 304.438 416.437 304.978 415.79C305.518 415.137 305.788 414.123 305.788 412.75C305.788 411.57 305.541 410.633 305.048 409.94C304.554 409.247 303.834 408.9 302.888 408.9C301.928 408.9 301.201 409.257 300.708 409.97C300.214 410.677 299.968 411.603 299.968 412.75C299.968 413.49 300.078 414.163 300.298 414.77C300.518 415.377 300.844 415.86 301.278 416.22C301.711 416.58 302.248 416.76 302.888 416.76ZM310.003 418V407.66H311.763V409.65C311.936 409.157 312.179 408.75 312.493 408.43C312.806 408.103 313.163 407.86 313.563 407.7C313.969 407.54 314.389 407.46 314.823 407.46C314.976 407.46 315.126 407.47 315.273 407.49C315.419 407.51 315.533 407.543 315.613 407.59V409.38C315.513 409.333 315.383 409.303 315.223 409.29C315.069 409.27 314.939 409.26 314.833 409.26C314.419 409.233 314.033 409.26 313.673 409.34C313.313 409.413 312.996 409.543 312.723 409.73C312.449 409.917 312.233 410.163 312.073 410.47C311.919 410.77 311.843 411.137 311.843 411.57V418H310.003ZM321.632 418.2C320.679 418.2 319.846 417.997 319.132 417.59C318.419 417.177 317.866 416.573 317.472 415.78C317.079 414.987 316.882 414.017 316.882 412.87C316.882 411.79 317.066 410.843 317.432 410.03C317.799 409.217 318.336 408.587 319.042 408.14C319.756 407.687 320.619 407.46 321.632 407.46C322.586 407.46 323.412 407.67 324.112 408.09C324.819 408.503 325.366 409.113 325.752 409.92C326.139 410.727 326.332 411.71 326.332 412.87C326.332 413.923 326.152 414.85 325.792 415.65C325.439 416.45 324.912 417.077 324.212 417.53C323.519 417.977 322.659 418.2 321.632 418.2ZM321.632 416.74C322.252 416.74 322.776 416.583 323.202 416.27C323.629 415.957 323.952 415.507 324.172 414.92C324.392 414.333 324.502 413.637 324.502 412.83C324.502 412.09 324.406 411.427 324.212 410.84C324.019 410.247 323.709 409.777 323.282 409.43C322.862 409.083 322.312 408.91 321.632 408.91C321.006 408.91 320.476 409.067 320.042 409.38C319.609 409.687 319.279 410.133 319.052 410.72C318.832 411.307 318.722 412.01 318.722 412.83C318.722 413.557 318.822 414.217 319.022 414.81C319.222 415.403 319.536 415.873 319.962 416.22C320.389 416.567 320.946 416.74 321.632 416.74ZM332.873 407.46C333.613 407.46 334.279 407.603 334.873 407.89C335.466 408.17 335.949 408.57 336.323 409.09C336.703 409.61 336.939 410.223 337.033 410.93H335.393C335.333 410.57 335.193 410.24 334.973 409.94C334.759 409.64 334.476 409.4 334.123 409.22C333.769 409.04 333.356 408.95 332.883 408.95C331.996 408.95 331.276 409.27 330.723 409.91C330.169 410.55 329.893 411.53 329.893 412.85C329.893 414.043 330.146 415 330.653 415.72C331.166 416.433 331.919 416.79 332.913 416.79C333.386 416.79 333.796 416.7 334.143 416.52C334.496 416.333 334.779 416.09 334.993 415.79C335.206 415.483 335.343 415.157 335.403 414.81H337.013C336.926 415.503 336.693 416.103 336.313 416.61C335.933 417.117 335.446 417.51 334.853 417.79C334.266 418.063 333.606 418.2 332.873 418.2C331.946 418.2 331.123 417.997 330.403 417.59C329.689 417.183 329.129 416.583 328.723 415.79C328.316 414.997 328.113 414.023 328.113 412.87C328.113 411.79 328.296 410.847 328.663 410.04C329.036 409.227 329.576 408.593 330.283 408.14C330.996 407.687 331.859 407.46 332.873 407.46ZM340.854 413.26C340.854 413.913 340.961 414.507 341.174 415.04C341.394 415.567 341.724 415.987 342.164 416.3C342.611 416.613 343.167 416.77 343.834 416.77C344.494 416.77 345.061 416.617 345.534 416.31C346.014 416.003 346.321 415.56 346.454 414.98H348.204C348.077 415.68 347.797 416.27 347.364 416.75C346.931 417.23 346.407 417.593 345.794 417.84C345.181 418.08 344.541 418.2 343.874 418.2C342.907 418.2 342.057 417.99 341.324 417.57C340.591 417.15 340.017 416.547 339.604 415.76C339.191 414.973 338.984 414.03 338.984 412.93C338.984 411.843 339.171 410.89 339.544 410.07C339.917 409.25 340.457 408.61 341.164 408.15C341.877 407.69 342.734 407.46 343.734 407.46C344.707 407.46 345.531 407.67 346.204 408.09C346.877 408.51 347.387 409.103 347.734 409.87C348.087 410.63 348.264 411.533 348.264 412.58V413.26H340.854ZM340.864 412.01H346.484C346.484 411.417 346.384 410.883 346.184 410.41C345.984 409.93 345.677 409.553 345.264 409.28C344.857 409 344.344 408.86 343.724 408.86C343.077 408.86 342.541 409.017 342.114 409.33C341.694 409.637 341.377 410.033 341.164 410.52C340.957 411 340.857 411.497 340.864 412.01ZM354.395 418.2C353.675 418.2 353.005 418.09 352.385 417.87C351.772 417.643 351.262 417.293 350.855 416.82C350.449 416.34 350.192 415.73 350.085 414.99H351.765C351.859 415.397 352.025 415.737 352.265 416.01C352.512 416.277 352.819 416.48 353.185 416.62C353.552 416.753 353.952 416.82 354.385 416.82C355.079 416.82 355.639 416.69 356.065 416.43C356.492 416.17 356.705 415.77 356.705 415.23C356.705 414.85 356.592 414.547 356.365 414.32C356.145 414.087 355.802 413.917 355.335 413.81L353.195 413.28C352.362 413.08 351.695 412.767 351.195 412.34C350.695 411.913 350.445 411.317 350.445 410.55C350.439 409.943 350.582 409.41 350.875 408.95C351.169 408.49 351.609 408.127 352.195 407.86C352.782 407.593 353.512 407.46 354.385 407.46C355.505 407.46 356.409 407.713 357.095 408.22C357.789 408.72 358.149 409.457 358.175 410.43H356.545C356.479 409.937 356.255 409.547 355.875 409.26C355.502 408.967 354.999 408.82 354.365 408.82C353.705 408.82 353.169 408.953 352.755 409.22C352.342 409.48 352.135 409.887 352.135 410.44C352.135 410.807 352.282 411.097 352.575 411.31C352.869 411.517 353.302 411.69 353.875 411.83L355.945 412.35C356.425 412.477 356.819 412.643 357.125 412.85C357.439 413.057 357.685 413.287 357.865 413.54C358.052 413.793 358.182 414.06 358.255 414.34C358.335 414.613 358.375 414.877 358.375 415.13C358.375 415.763 358.215 416.31 357.895 416.77C357.582 417.223 357.129 417.577 356.535 417.83C355.949 418.077 355.235 418.2 354.395 418.2ZM364.454 418.2C363.734 418.2 363.064 418.09 362.444 417.87C361.831 417.643 361.321 417.293 360.914 416.82C360.507 416.34 360.251 415.73 360.144 414.99H361.824C361.917 415.397 362.084 415.737 362.324 416.01C362.571 416.277 362.877 416.48 363.244 416.62C363.611 416.753 364.011 416.82 364.444 416.82C365.137 416.82 365.697 416.69 366.124 416.43C366.551 416.17 366.764 415.77 366.764 415.23C366.764 414.85 366.651 414.547 366.424 414.32C366.204 414.087 365.861 413.917 365.394 413.81L363.254 413.28C362.421 413.08 361.754 412.767 361.254 412.34C360.754 411.913 360.504 411.317 360.504 410.55C360.497 409.943 360.641 409.41 360.934 408.95C361.227 408.49 361.667 408.127 362.254 407.86C362.841 407.593 363.571 407.46 364.444 407.46C365.564 407.46 366.467 407.713 367.154 408.22C367.847 408.72 368.207 409.457 368.234 410.43H366.604C366.537 409.937 366.314 409.547 365.934 409.26C365.561 408.967 365.057 408.82 364.424 408.82C363.764 408.82 363.227 408.953 362.814 409.22C362.401 409.48 362.194 409.887 362.194 410.44C362.194 410.807 362.341 411.097 362.634 411.31C362.927 411.517 363.361 411.69 363.934 411.83L366.004 412.35C366.484 412.477 366.877 412.643 367.184 412.85C367.497 413.057 367.744 413.287 367.924 413.54C368.111 413.793 368.241 414.06 368.314 414.34C368.394 414.613 368.434 414.877 368.434 415.13C368.434 415.763 368.274 416.31 367.954 416.77C367.641 417.223 367.187 417.577 366.594 417.83C366.007 418.077 365.294 418.2 364.454 418.2ZM372.338 413.26C372.338 413.913 372.445 414.507 372.658 415.04C372.878 415.567 373.208 415.987 373.648 416.3C374.095 416.613 374.652 416.77 375.318 416.77C375.978 416.77 376.545 416.617 377.018 416.31C377.498 416.003 377.805 415.56 377.938 414.98H379.688C379.562 415.68 379.282 416.27 378.848 416.75C378.415 417.23 377.892 417.593 377.278 417.84C376.665 418.08 376.025 418.2 375.358 418.2C374.392 418.2 373.542 417.99 372.808 417.57C372.075 417.15 371.502 416.547 371.088 415.76C370.675 414.973 370.468 414.03 370.468 412.93C370.468 411.843 370.655 410.89 371.028 410.07C371.402 409.25 371.942 408.61 372.648 408.15C373.362 407.69 374.218 407.46 375.218 407.46C376.192 407.46 377.015 407.67 377.688 408.09C378.362 408.51 378.872 409.103 379.218 409.87C379.572 410.63 379.748 411.533 379.748 412.58V413.26H372.338ZM372.348 412.01H377.968C377.968 411.417 377.868 410.883 377.668 410.41C377.468 409.93 377.162 409.553 376.748 409.28C376.342 409 375.828 408.86 375.208 408.86C374.562 408.86 374.025 409.017 373.598 409.33C373.178 409.637 372.862 410.033 372.648 410.52C372.442 411 372.342 411.497 372.348 412.01ZM386.018 418.2C384.678 418.2 383.614 417.74 382.828 416.82C382.041 415.9 381.648 414.557 381.648 412.79C381.648 411.717 381.804 410.78 382.118 409.98C382.438 409.18 382.911 408.56 383.538 408.12C384.164 407.68 384.944 407.46 385.878 407.46C386.371 407.46 386.808 407.523 387.188 407.65C387.574 407.777 387.908 407.937 388.188 408.13C388.468 408.323 388.694 408.523 388.868 408.73C389.048 408.937 389.181 409.127 389.268 409.3V403.14H391.128V418H389.718L389.518 415.88C389.451 416.08 389.344 416.313 389.198 416.58C389.051 416.84 388.844 417.097 388.578 417.35C388.311 417.597 387.968 417.8 387.548 417.96C387.134 418.12 386.624 418.2 386.018 418.2ZM386.348 416.78C387.394 416.78 388.141 416.463 388.588 415.83C389.041 415.19 389.268 414.147 389.268 412.7C389.261 411.893 389.158 411.207 388.958 410.64C388.764 410.073 388.458 409.643 388.038 409.35C387.624 409.05 387.074 408.9 386.388 408.9C385.534 408.9 384.841 409.203 384.308 409.81C383.774 410.417 383.508 411.38 383.508 412.7C383.508 413.993 383.748 414.997 384.228 415.71C384.714 416.423 385.421 416.78 386.348 416.78ZM393.752 418V415.64H395.952V418H393.752ZM402.097 405.24V403.54H413.037V405.24H408.627V418H406.767V405.24H402.097ZM415.042 418V403.14H416.842V409.18C417.015 408.893 417.248 408.627 417.542 408.38C417.835 408.127 418.192 407.923 418.612 407.77C419.032 407.61 419.518 407.53 420.072 407.53C420.745 407.53 421.355 407.657 421.902 407.91C422.448 408.157 422.882 408.51 423.202 408.97C423.522 409.43 423.682 409.977 423.682 410.61V418H421.832V410.98C421.832 410.36 421.618 409.883 421.192 409.55C420.772 409.21 420.222 409.04 419.542 409.04C419.082 409.04 418.648 409.117 418.242 409.27C417.835 409.417 417.505 409.643 417.252 409.95C417.005 410.25 416.882 410.633 416.882 411.1V418H415.042ZM427.885 413.26C427.885 413.913 427.992 414.507 428.205 415.04C428.425 415.567 428.755 415.987 429.195 416.3C429.642 416.613 430.198 416.77 430.865 416.77C431.525 416.77 432.092 416.617 432.565 416.31C433.045 416.003 433.352 415.56 433.485 414.98H435.235C435.108 415.68 434.828 416.27 434.395 416.75C433.962 417.23 433.438 417.593 432.825 417.84C432.212 418.08 431.572 418.2 430.905 418.2C429.938 418.2 429.088 417.99 428.355 417.57C427.622 417.15 427.048 416.547 426.635 415.76C426.222 414.973 426.015 414.03 426.015 412.93C426.015 411.843 426.202 410.89 426.575 410.07C426.948 409.25 427.488 408.61 428.195 408.15C428.908 407.69 429.765 407.46 430.765 407.46C431.738 407.46 432.562 407.67 433.235 408.09C433.908 408.51 434.418 409.103 434.765 409.87C435.118 410.63 435.295 411.533 435.295 412.58V413.26H427.885ZM427.895 412.01H433.515C433.515 411.417 433.415 410.883 433.215 410.41C433.015 409.93 432.708 409.553 432.295 409.28C431.888 409 431.375 408.86 430.755 408.86C430.108 408.86 429.572 409.017 429.145 409.33C428.725 409.637 428.408 410.033 428.195 410.52C427.988 411 427.888 411.497 427.895 412.01ZM90.92 437.01H88.59V443.44C88.59 443.807 88.6267 444.077 88.7 444.25C88.78 444.417 88.91 444.523 89.09 444.57C89.2767 444.617 89.53 444.64 89.85 444.64H90.98V445.88C90.8533 445.927 90.66 445.967 90.4 446C90.1467 446.033 89.83 446.05 89.45 446.05C88.7367 446.05 88.1833 445.953 87.79 445.76C87.3967 445.567 87.12 445.28 86.96 444.9C86.8067 444.52 86.73 444.053 86.73 443.5V437.01H85.05V435.66H86.78L87.23 432.65H88.59V435.65H90.92V437.01ZM97.4134 446.2C96.4601 446.2 95.6268 445.997 94.9134 445.59C94.2001 445.177 93.6468 444.573 93.2534 443.78C92.8601 442.987 92.6634 442.017 92.6634 440.87C92.6634 439.79 92.8468 438.843 93.2134 438.03C93.5801 437.217 94.1168 436.587 94.8234 436.14C95.5368 435.687 96.4001 435.46 97.4134 435.46C98.3668 435.46 99.1934 435.67 99.8934 436.09C100.6 436.503 101.147 437.113 101.533 437.92C101.92 438.727 102.113 439.71 102.113 440.87C102.113 441.923 101.933 442.85 101.573 443.65C101.22 444.45 100.693 445.077 99.9934 445.53C99.3001 445.977 98.4401 446.2 97.4134 446.2ZM97.4134 444.74C98.0334 444.74 98.5568 444.583 98.9834 444.27C99.4101 443.957 99.7334 443.507 99.9534 442.92C100.173 442.333 100.283 441.637 100.283 440.83C100.283 440.09 100.187 439.427 99.9934 438.84C99.8001 438.247 99.4901 437.777 99.0634 437.43C98.6434 437.083 98.0934 436.91 97.4134 436.91C96.7868 436.91 96.2568 437.067 95.8234 437.38C95.3901 437.687 95.0601 438.133 94.8334 438.72C94.6134 439.307 94.5034 440.01 94.5034 440.83C94.5034 441.557 94.6034 442.217 94.8034 442.81C95.0034 443.403 95.3168 443.873 95.7434 444.22C96.1701 444.567 96.7268 444.74 97.4134 444.74ZM109.455 437.01H107.125V443.44C107.125 443.807 107.162 444.077 107.235 444.25C107.315 444.417 107.445 444.523 107.625 444.57C107.812 444.617 108.065 444.64 108.385 444.64H109.515V445.88C109.388 445.927 109.195 445.967 108.935 446C108.682 446.033 108.365 446.05 107.985 446.05C107.272 446.05 106.718 445.953 106.325 445.76C105.932 445.567 105.655 445.28 105.495 444.9C105.342 444.52 105.265 444.053 105.265 443.5V437.01H103.585V435.66H105.315L105.765 432.65H107.125V435.65H109.455V437.01ZM114.894 446.2C114.227 446.2 113.637 446.083 113.124 445.85C112.611 445.61 112.207 445.267 111.914 444.82C111.627 444.373 111.484 443.833 111.484 443.2C111.484 442.053 111.884 441.2 112.684 440.64C113.484 440.08 114.767 439.78 116.534 439.74L118.384 439.69V438.88C118.384 438.247 118.194 437.747 117.814 437.38C117.434 437.007 116.844 436.82 116.044 436.82C115.451 436.827 114.927 436.967 114.474 437.24C114.027 437.513 113.737 437.96 113.604 438.58H111.974C112.014 437.907 112.204 437.34 112.544 436.88C112.884 436.413 113.357 436.06 113.964 435.82C114.577 435.58 115.301 435.46 116.134 435.46C117.034 435.46 117.781 435.587 118.374 435.84C118.974 436.093 119.421 436.467 119.714 436.96C120.014 437.453 120.164 438.06 120.164 438.78V446H118.584L118.454 444.06C118.054 444.867 117.544 445.427 116.924 445.74C116.311 446.047 115.634 446.2 114.894 446.2ZM115.454 444.87C115.801 444.87 116.144 444.807 116.484 444.68C116.831 444.553 117.147 444.383 117.434 444.17C117.721 443.95 117.947 443.707 118.114 443.44C118.287 443.167 118.377 442.887 118.384 442.6V440.83L116.844 440.86C116.057 440.873 115.397 440.953 114.864 441.1C114.337 441.247 113.941 441.477 113.674 441.79C113.414 442.103 113.284 442.513 113.284 443.02C113.284 443.6 113.484 444.053 113.884 444.38C114.291 444.707 114.814 444.87 115.454 444.87ZM125.933 446.13C125.373 446.13 124.92 446.053 124.573 445.9C124.233 445.747 123.97 445.54 123.783 445.28C123.603 445.02 123.48 444.723 123.413 444.39C123.353 444.05 123.323 443.7 123.323 443.34V431.14H125.143V443.16C125.143 443.68 125.243 444.07 125.443 444.33C125.65 444.59 125.936 444.733 126.303 444.76L126.863 444.77V445.97C126.71 446.017 126.55 446.053 126.383 446.08C126.216 446.113 126.066 446.13 125.933 446.13ZM136.749 446.2C136.083 446.2 135.493 446.083 134.979 445.85C134.466 445.61 134.063 445.267 133.769 444.82C133.483 444.373 133.339 443.833 133.339 443.2C133.339 442.053 133.739 441.2 134.539 440.64C135.339 440.08 136.623 439.78 138.389 439.74L140.239 439.69V438.88C140.239 438.247 140.049 437.747 139.669 437.38C139.289 437.007 138.699 436.82 137.899 436.82C137.306 436.827 136.783 436.967 136.329 437.24C135.883 437.513 135.593 437.96 135.459 438.58H133.829C133.869 437.907 134.059 437.34 134.399 436.88C134.739 436.413 135.213 436.06 135.819 435.82C136.433 435.58 137.156 435.46 137.989 435.46C138.889 435.46 139.636 435.587 140.229 435.84C140.829 436.093 141.276 436.467 141.569 436.96C141.869 437.453 142.019 438.06 142.019 438.78V446H140.439L140.309 444.06C139.909 444.867 139.399 445.427 138.779 445.74C138.166 446.047 137.489 446.2 136.749 446.2ZM137.309 444.87C137.656 444.87 137.999 444.807 138.339 444.68C138.686 444.553 139.003 444.383 139.289 444.17C139.576 443.95 139.803 443.707 139.969 443.44C140.143 443.167 140.233 442.887 140.239 442.6V440.83L138.699 440.86C137.913 440.873 137.253 440.953 136.719 441.1C136.193 441.247 135.796 441.477 135.529 441.79C135.269 442.103 135.139 442.513 135.139 443.02C135.139 443.6 135.339 444.053 135.739 444.38C136.146 444.707 136.669 444.87 137.309 444.87ZM145.178 446V435.66H146.958V437.16C147.245 436.707 147.638 436.31 148.138 435.97C148.638 435.63 149.288 435.46 150.088 435.46C150.462 435.46 150.842 435.523 151.228 435.65C151.622 435.777 151.982 435.967 152.308 436.22C152.635 436.473 152.888 436.783 153.068 437.15C153.388 436.643 153.822 436.237 154.368 435.93C154.915 435.617 155.532 435.46 156.218 435.46C156.578 435.46 156.955 435.517 157.348 435.63C157.742 435.737 158.105 435.93 158.438 436.21C158.778 436.483 159.055 436.867 159.268 437.36C159.482 437.847 159.588 438.473 159.588 439.24V446H157.728V439.42C157.728 438.793 157.628 438.31 157.428 437.97C157.228 437.623 156.965 437.38 156.638 437.24C156.318 437.1 155.975 437.03 155.608 437.03C155.288 437.03 154.948 437.093 154.588 437.22C154.228 437.347 153.922 437.56 153.668 437.86C153.415 438.16 153.288 438.57 153.288 439.09V446H151.448V438.88C151.448 438.473 151.338 438.133 151.118 437.86C150.905 437.587 150.635 437.38 150.308 437.24C149.988 437.1 149.668 437.03 149.348 437.03C148.995 437.03 148.638 437.1 148.278 437.24C147.925 437.38 147.625 437.603 147.378 437.91C147.138 438.21 147.018 438.603 147.018 439.09V446H145.178ZM166.593 446.2C165.64 446.2 164.806 445.997 164.093 445.59C163.38 445.177 162.826 444.573 162.433 443.78C162.04 442.987 161.843 442.017 161.843 440.87C161.843 439.79 162.026 438.843 162.393 438.03C162.76 437.217 163.296 436.587 164.003 436.14C164.716 435.687 165.58 435.46 166.593 435.46C167.546 435.46 168.373 435.67 169.073 436.09C169.78 436.503 170.326 437.113 170.713 437.92C171.1 438.727 171.293 439.71 171.293 440.87C171.293 441.923 171.113 442.85 170.753 443.65C170.4 444.45 169.873 445.077 169.173 445.53C168.48 445.977 167.62 446.2 166.593 446.2ZM166.593 444.74C167.213 444.74 167.736 444.583 168.163 444.27C168.59 443.957 168.913 443.507 169.133 442.92C169.353 442.333 169.463 441.637 169.463 440.83C169.463 440.09 169.366 439.427 169.173 438.84C168.98 438.247 168.67 437.777 168.243 437.43C167.823 437.083 167.273 436.91 166.593 436.91C165.966 436.91 165.436 437.067 165.003 437.38C164.57 437.687 164.24 438.133 164.013 438.72C163.793 439.307 163.683 440.01 163.683 440.83C163.683 441.557 163.783 442.217 163.983 442.81C164.183 443.403 164.496 443.873 164.923 444.22C165.35 444.567 165.906 444.74 166.593 444.74ZM177.338 446.2C176.798 446.193 176.288 446.117 175.808 445.97C175.334 445.817 174.914 445.593 174.548 445.3C174.181 445.007 173.891 444.643 173.678 444.21C173.471 443.77 173.368 443.26 173.368 442.68V435.66H175.218V442.49C175.218 443.163 175.424 443.71 175.838 444.13C176.258 444.55 176.888 444.76 177.728 444.76C178.488 444.76 179.098 444.563 179.558 444.17C180.024 443.77 180.258 443.177 180.258 442.39V435.66H182.098V446H180.628L180.438 444.02C180.311 444.54 180.094 444.96 179.788 445.28C179.488 445.6 179.124 445.837 178.698 445.99C178.278 446.137 177.824 446.207 177.338 446.2ZM185.12 446V435.66H186.91V437.16C187.077 436.873 187.307 436.603 187.6 436.35C187.9 436.097 188.26 435.893 188.68 435.74C189.107 435.587 189.597 435.51 190.15 435.51C190.803 435.51 191.403 435.64 191.95 435.9C192.503 436.16 192.943 436.567 193.27 437.12C193.603 437.667 193.77 438.373 193.77 439.24V446H191.92V439.42C191.92 438.613 191.707 438.017 191.28 437.63C190.86 437.237 190.313 437.04 189.64 437.04C189.173 437.04 188.737 437.117 188.33 437.27C187.923 437.417 187.593 437.643 187.34 437.95C187.087 438.25 186.96 438.63 186.96 439.09V446H185.12ZM201.428 437.01H199.098V443.44C199.098 443.807 199.134 444.077 199.208 444.25C199.288 444.417 199.418 444.523 199.598 444.57C199.784 444.617 200.038 444.64 200.358 444.64H201.488V445.88C201.361 445.927 201.168 445.967 200.908 446C200.654 446.033 200.338 446.05 199.958 446.05C199.244 446.05 198.691 445.953 198.298 445.76C197.904 445.567 197.628 445.28 197.468 444.9C197.314 444.52 197.238 444.053 197.238 443.5V437.01H195.558V435.66H197.288L197.738 432.65H199.098V435.65H201.428V437.01ZM212.17 446.2C210.83 446.2 209.767 445.74 208.98 444.82C208.193 443.9 207.8 442.557 207.8 440.79C207.8 439.717 207.957 438.78 208.27 437.98C208.59 437.18 209.063 436.56 209.69 436.12C210.317 435.68 211.097 435.46 212.03 435.46C212.523 435.46 212.96 435.523 213.34 435.65C213.727 435.777 214.06 435.937 214.34 436.13C214.62 436.323 214.847 436.523 215.02 436.73C215.2 436.937 215.333 437.127 215.42 437.3V431.14H217.28V446H215.87L215.67 443.88C215.603 444.08 215.497 444.313 215.35 444.58C215.203 444.84 214.997 445.097 214.73 445.35C214.463 445.597 214.12 445.8 213.7 445.96C213.287 446.12 212.777 446.2 212.17 446.2ZM212.5 444.78C213.547 444.78 214.293 444.463 214.74 443.83C215.193 443.19 215.42 442.147 215.42 440.7C215.413 439.893 215.31 439.207 215.11 438.64C214.917 438.073 214.61 437.643 214.19 437.35C213.777 437.05 213.227 436.9 212.54 436.9C211.687 436.9 210.993 437.203 210.46 437.81C209.927 438.417 209.66 439.38 209.66 440.7C209.66 441.993 209.9 442.997 210.38 443.71C210.867 444.423 211.573 444.78 212.5 444.78ZM221.655 441.26C221.655 441.913 221.761 442.507 221.975 443.04C222.195 443.567 222.525 443.987 222.965 444.3C223.411 444.613 223.968 444.77 224.635 444.77C225.295 444.77 225.861 444.617 226.335 444.31C226.815 444.003 227.121 443.56 227.255 442.98H229.005C228.878 443.68 228.598 444.27 228.165 444.75C227.731 445.23 227.208 445.593 226.595 445.84C225.981 446.08 225.341 446.2 224.675 446.2C223.708 446.2 222.858 445.99 222.125 445.57C221.391 445.15 220.818 444.547 220.405 443.76C219.991 442.973 219.785 442.03 219.785 440.93C219.785 439.843 219.971 438.89 220.345 438.07C220.718 437.25 221.258 436.61 221.965 436.15C222.678 435.69 223.535 435.46 224.535 435.46C225.508 435.46 226.331 435.67 227.005 436.09C227.678 436.51 228.188 437.103 228.535 437.87C228.888 438.63 229.065 439.533 229.065 440.58V441.26H221.655ZM221.665 440.01H227.285C227.285 439.417 227.185 438.883 226.985 438.41C226.785 437.93 226.478 437.553 226.065 437.28C225.658 437 225.145 436.86 224.525 436.86C223.878 436.86 223.341 437.017 222.915 437.33C222.495 437.637 222.178 438.033 221.965 438.52C221.758 439 221.658 439.497 221.665 440.01ZM235.334 446.2C233.994 446.2 232.931 445.74 232.144 444.82C231.358 443.9 230.964 442.557 230.964 440.79C230.964 439.717 231.121 438.78 231.434 437.98C231.754 437.18 232.228 436.56 232.854 436.12C233.481 435.68 234.261 435.46 235.194 435.46C235.688 435.46 236.124 435.523 236.504 435.65C236.891 435.777 237.224 435.937 237.504 436.13C237.784 436.323 238.011 436.523 238.184 436.73C238.364 436.937 238.498 437.127 238.584 437.3V431.14H240.444V446H239.034L238.834 443.88C238.768 444.08 238.661 444.313 238.514 444.58C238.368 444.84 238.161 445.097 237.894 445.35C237.628 445.597 237.284 445.8 236.864 445.96C236.451 446.12 235.941 446.2 235.334 446.2ZM235.664 444.78C236.711 444.78 237.458 444.463 237.904 443.83C238.358 443.19 238.584 442.147 238.584 440.7C238.578 439.893 238.474 439.207 238.274 438.64C238.081 438.073 237.774 437.643 237.354 437.35C236.941 437.05 236.391 436.9 235.704 436.9C234.851 436.9 234.158 437.203 233.624 437.81C233.091 438.417 232.824 439.38 232.824 440.7C232.824 441.993 233.064 442.997 233.544 443.71C234.031 444.423 234.738 444.78 235.664 444.78ZM247.299 446.2C246.759 446.193 246.249 446.117 245.769 445.97C245.295 445.817 244.875 445.593 244.509 445.3C244.142 445.007 243.852 444.643 243.639 444.21C243.432 443.77 243.329 443.26 243.329 442.68V435.66H245.179V442.49C245.179 443.163 245.385 443.71 245.799 444.13C246.219 444.55 246.849 444.76 247.689 444.76C248.449 444.76 249.059 444.563 249.519 444.17C249.985 443.77 250.219 443.177 250.219 442.39V435.66H252.059V446H250.589L250.399 444.02C250.272 444.54 250.055 444.96 249.749 445.28C249.449 445.6 249.085 445.837 248.659 445.99C248.239 446.137 247.785 446.207 247.299 446.2ZM259.064 435.46C259.804 435.46 260.471 435.603 261.064 435.89C261.657 436.17 262.141 436.57 262.514 437.09C262.894 437.61 263.131 438.223 263.224 438.93H261.584C261.524 438.57 261.384 438.24 261.164 437.94C260.951 437.64 260.667 437.4 260.314 437.22C259.961 437.04 259.547 436.95 259.074 436.95C258.187 436.95 257.467 437.27 256.914 437.91C256.361 438.55 256.084 439.53 256.084 440.85C256.084 442.043 256.337 443 256.844 443.72C257.357 444.433 258.111 444.79 259.104 444.79C259.577 444.79 259.987 444.7 260.334 444.52C260.687 444.333 260.971 444.09 261.184 443.79C261.397 443.483 261.534 443.157 261.594 442.81H263.204C263.117 443.503 262.884 444.103 262.504 444.61C262.124 445.117 261.637 445.51 261.044 445.79C260.457 446.063 259.797 446.2 259.064 446.2C258.137 446.2 257.314 445.997 256.594 445.59C255.881 445.183 255.321 444.583 254.914 443.79C254.507 442.997 254.304 442.023 254.304 440.87C254.304 439.79 254.487 438.847 254.854 438.04C255.227 437.227 255.767 436.593 256.474 436.14C257.187 435.687 258.051 435.46 259.064 435.46ZM270.647 437.01H268.317V443.44C268.317 443.807 268.353 444.077 268.427 444.25C268.507 444.417 268.637 444.523 268.817 444.57C269.003 444.617 269.257 444.64 269.577 444.64H270.707V445.88C270.58 445.927 270.387 445.967 270.127 446C269.873 446.033 269.557 446.05 269.177 446.05C268.463 446.05 267.91 445.953 267.517 445.76C267.123 445.567 266.847 445.28 266.687 444.9C266.533 444.52 266.457 444.053 266.457 443.5V437.01H264.777V435.66H266.507L266.957 432.65H268.317V435.65H270.647V437.01ZM274.35 441.26C274.35 441.913 274.457 442.507 274.67 443.04C274.89 443.567 275.22 443.987 275.66 444.3C276.107 444.613 276.663 444.77 277.33 444.77C277.99 444.77 278.557 444.617 279.03 444.31C279.51 444.003 279.817 443.56 279.95 442.98H281.7C281.573 443.68 281.293 444.27 280.86 444.75C280.427 445.23 279.903 445.593 279.29 445.84C278.677 446.08 278.037 446.2 277.37 446.2C276.403 446.2 275.553 445.99 274.82 445.57C274.087 445.15 273.513 444.547 273.1 443.76C272.687 442.973 272.48 442.03 272.48 440.93C272.48 439.843 272.667 438.89 273.04 438.07C273.413 437.25 273.953 436.61 274.66 436.15C275.373 435.69 276.23 435.46 277.23 435.46C278.203 435.46 279.027 435.67 279.7 436.09C280.373 436.51 280.883 437.103 281.23 437.87C281.583 438.63 281.76 439.533 281.76 440.58V441.26H274.35ZM274.36 440.01H279.98C279.98 439.417 279.88 438.883 279.68 438.41C279.48 437.93 279.173 437.553 278.76 437.28C278.353 437 277.84 436.86 277.22 436.86C276.573 436.86 276.037 437.017 275.61 437.33C275.19 437.637 274.873 438.033 274.66 438.52C274.453 439 274.353 439.497 274.36 440.01ZM288.03 446.2C286.69 446.2 285.626 445.74 284.84 444.82C284.053 443.9 283.66 442.557 283.66 440.79C283.66 439.717 283.816 438.78 284.13 437.98C284.45 437.18 284.923 436.56 285.55 436.12C286.176 435.68 286.956 435.46 287.89 435.46C288.383 435.46 288.82 435.523 289.2 435.65C289.586 435.777 289.92 435.937 290.2 436.13C290.48 436.323 290.706 436.523 290.88 436.73C291.06 436.937 291.193 437.127 291.28 437.3V431.14H293.14V446H291.73L291.53 443.88C291.463 444.08 291.356 444.313 291.21 444.58C291.063 444.84 290.856 445.097 290.59 445.35C290.323 445.597 289.98 445.8 289.56 445.96C289.146 446.12 288.636 446.2 288.03 446.2ZM288.36 444.78C289.406 444.78 290.153 444.463 290.6 443.83C291.053 443.19 291.28 442.147 291.28 440.7C291.273 439.893 291.17 439.207 290.97 438.64C290.776 438.073 290.47 437.643 290.05 437.35C289.636 437.05 289.086 436.9 288.4 436.9C287.546 436.9 286.853 437.203 286.32 437.81C285.786 438.417 285.52 439.38 285.52 440.7C285.52 441.993 285.76 442.997 286.24 443.71C286.726 444.423 287.433 444.78 288.36 444.78ZM306.643 435.66V437.01H304.133V446H302.273V437.01H300.093V435.66H302.273V434.06C302.273 433.24 302.483 432.617 302.903 432.19C303.323 431.757 303.95 431.54 304.783 431.54H306.733L306.743 432.85H305.193C304.773 432.85 304.487 432.963 304.333 433.19C304.18 433.417 304.103 433.76 304.103 434.22V435.66H306.643ZM308.928 446V435.66H310.688V437.65C310.862 437.157 311.105 436.75 311.418 436.43C311.732 436.103 312.088 435.86 312.488 435.7C312.895 435.54 313.315 435.46 313.748 435.46C313.902 435.46 314.052 435.47 314.198 435.49C314.345 435.51 314.458 435.543 314.538 435.59V437.38C314.438 437.333 314.308 437.303 314.148 437.29C313.995 437.27 313.865 437.26 313.758 437.26C313.345 437.233 312.958 437.26 312.598 437.34C312.238 437.413 311.922 437.543 311.648 437.73C311.375 437.917 311.158 438.163 310.998 438.47C310.845 438.77 310.768 439.137 310.768 439.57V446H308.928ZM320.558 446.2C319.605 446.2 318.771 445.997 318.058 445.59C317.345 445.177 316.791 444.573 316.398 443.78C316.005 442.987 315.808 442.017 315.808 440.87C315.808 439.79 315.991 438.843 316.358 438.03C316.725 437.217 317.261 436.587 317.968 436.14C318.681 435.687 319.545 435.46 320.558 435.46C321.511 435.46 322.338 435.67 323.038 436.09C323.745 436.503 324.291 437.113 324.678 437.92C325.065 438.727 325.258 439.71 325.258 440.87C325.258 441.923 325.078 442.85 324.718 443.65C324.365 444.45 323.838 445.077 323.138 445.53C322.445 445.977 321.585 446.2 320.558 446.2ZM320.558 444.74C321.178 444.74 321.701 444.583 322.128 444.27C322.555 443.957 322.878 443.507 323.098 442.92C323.318 442.333 323.428 441.637 323.428 440.83C323.428 440.09 323.331 439.427 323.138 438.84C322.945 438.247 322.635 437.777 322.208 437.43C321.788 437.083 321.238 436.91 320.558 436.91C319.931 436.91 319.401 437.067 318.968 437.38C318.535 437.687 318.205 438.133 317.978 438.72C317.758 439.307 317.648 440.01 317.648 440.83C317.648 441.557 317.748 442.217 317.948 442.81C318.148 443.403 318.461 443.873 318.888 444.22C319.315 444.567 319.871 444.74 320.558 444.74ZM327.678 446V435.66H329.458V437.16C329.745 436.707 330.138 436.31 330.638 435.97C331.138 435.63 331.788 435.46 332.588 435.46C332.962 435.46 333.342 435.523 333.728 435.65C334.122 435.777 334.482 435.967 334.808 436.22C335.135 436.473 335.388 436.783 335.568 437.15C335.888 436.643 336.322 436.237 336.868 435.93C337.415 435.617 338.032 435.46 338.718 435.46C339.078 435.46 339.455 435.517 339.848 435.63C340.242 435.737 340.605 435.93 340.938 436.21C341.278 436.483 341.555 436.867 341.768 437.36C341.982 437.847 342.088 438.473 342.088 439.24V446H340.228V439.42C340.228 438.793 340.128 438.31 339.928 437.97C339.728 437.623 339.465 437.38 339.138 437.24C338.818 437.1 338.475 437.03 338.108 437.03C337.788 437.03 337.448 437.093 337.088 437.22C336.728 437.347 336.422 437.56 336.168 437.86C335.915 438.16 335.788 438.57 335.788 439.09V446H333.948V438.88C333.948 438.473 333.838 438.133 333.618 437.86C333.405 437.587 333.135 437.38 332.808 437.24C332.488 437.1 332.168 437.03 331.848 437.03C331.495 437.03 331.138 437.1 330.778 437.24C330.425 437.38 330.125 437.603 329.878 437.91C329.638 438.21 329.518 438.603 329.518 439.09V446H327.678ZM350.476 449.3C349.869 449.3 349.452 449.257 349.226 449.17C348.999 449.083 348.886 449.04 348.886 449.04V447.84L349.936 447.86C350.322 447.873 350.642 447.847 350.896 447.78C351.149 447.713 351.352 447.623 351.506 447.51C351.659 447.397 351.776 447.27 351.856 447.13C351.942 446.99 352.012 446.857 352.066 446.73L352.426 445.75L348.386 435.66H350.256L353.306 443.64L356.336 435.66H358.146L353.786 446.78C353.519 447.433 353.219 447.943 352.886 448.31C352.559 448.677 352.192 448.933 351.786 449.08C351.386 449.227 350.949 449.3 350.476 449.3ZM363.859 446.2C362.905 446.2 362.072 445.997 361.359 445.59C360.645 445.177 360.092 444.573 359.699 443.78C359.305 442.987 359.109 442.017 359.109 440.87C359.109 439.79 359.292 438.843 359.659 438.03C360.025 437.217 360.562 436.587 361.269 436.14C361.982 435.687 362.845 435.46 363.859 435.46C364.812 435.46 365.639 435.67 366.339 436.09C367.045 436.503 367.592 437.113 367.979 437.92C368.365 438.727 368.559 439.71 368.559 440.87C368.559 441.923 368.379 442.85 368.019 443.65C367.665 444.45 367.139 445.077 366.439 445.53C365.745 445.977 364.885 446.2 363.859 446.2ZM363.859 444.74C364.479 444.74 365.002 444.583 365.429 444.27C365.855 443.957 366.179 443.507 366.399 442.92C366.619 442.333 366.729 441.637 366.729 440.83C366.729 440.09 366.632 439.427 366.439 438.84C366.245 438.247 365.935 437.777 365.509 437.43C365.089 437.083 364.539 436.91 363.859 436.91C363.232 436.91 362.702 437.067 362.269 437.38C361.835 437.687 361.505 438.133 361.279 438.72C361.059 439.307 360.949 440.01 360.949 440.83C360.949 441.557 361.049 442.217 361.249 442.81C361.449 443.403 361.762 443.873 362.189 444.22C362.615 444.567 363.172 444.74 363.859 444.74ZM374.603 446.2C374.063 446.193 373.553 446.117 373.073 445.97C372.6 445.817 372.18 445.593 371.813 445.3C371.447 445.007 371.157 444.643 370.943 444.21C370.737 443.77 370.633 443.26 370.633 442.68V435.66H372.483V442.49C372.483 443.163 372.69 443.71 373.103 444.13C373.523 444.55 374.153 444.76 374.993 444.76C375.753 444.76 376.363 444.563 376.823 444.17C377.29 443.77 377.523 443.177 377.523 442.39V435.66H379.363V446H377.893L377.703 444.02C377.577 444.54 377.36 444.96 377.053 445.28C376.753 445.6 376.39 445.837 375.963 445.99C375.543 446.137 375.09 446.207 374.603 446.2ZM382.385 446V435.66H384.145V437.65C384.319 437.157 384.562 436.75 384.875 436.43C385.189 436.103 385.545 435.86 385.945 435.7C386.352 435.54 386.772 435.46 387.205 435.46C387.359 435.46 387.509 435.47 387.655 435.49C387.802 435.51 387.915 435.543 387.995 435.59V437.38C387.895 437.333 387.765 437.303 387.605 437.29C387.452 437.27 387.322 437.26 387.215 437.26C386.802 437.233 386.415 437.26 386.055 437.34C385.695 437.413 385.379 437.543 385.105 437.73C384.832 437.917 384.615 438.163 384.455 438.47C384.302 438.77 384.225 439.137 384.225 439.57V446H382.385ZM88.39 474.2C87.7233 474.2 87.1333 474.083 86.62 473.85C86.1067 473.61 85.7033 473.267 85.41 472.82C85.1233 472.373 84.98 471.833 84.98 471.2C84.98 470.053 85.38 469.2 86.18 468.64C86.98 468.08 88.2633 467.78 90.03 467.74L91.88 467.69V466.88C91.88 466.247 91.69 465.747 91.31 465.38C90.93 465.007 90.34 464.82 89.54 464.82C88.9467 464.827 88.4233 464.967 87.97 465.24C87.5233 465.513 87.2333 465.96 87.1 466.58H85.47C85.51 465.907 85.7 465.34 86.04 464.88C86.38 464.413 86.8533 464.06 87.46 463.82C88.0733 463.58 88.7967 463.46 89.63 463.46C90.53 463.46 91.2767 463.587 91.87 463.84C92.47 464.093 92.9167 464.467 93.21 464.96C93.51 465.453 93.66 466.06 93.66 466.78V474H92.08L91.95 472.06C91.55 472.867 91.04 473.427 90.42 473.74C89.8067 474.047 89.13 474.2 88.39 474.2ZM88.95 472.87C89.2967 472.87 89.64 472.807 89.98 472.68C90.3267 472.553 90.6433 472.383 90.93 472.17C91.2167 471.95 91.4433 471.707 91.61 471.44C91.7833 471.167 91.8733 470.887 91.88 470.6V468.83L90.34 468.86C89.5533 468.873 88.8933 468.953 88.36 469.1C87.8333 469.247 87.4367 469.477 87.17 469.79C86.91 470.103 86.78 470.513 86.78 471.02C86.78 471.6 86.98 472.053 87.38 472.38C87.7867 472.707 88.31 472.87 88.95 472.87ZM100.939 463.46C101.679 463.46 102.346 463.603 102.939 463.89C103.532 464.17 104.016 464.57 104.389 465.09C104.769 465.61 105.006 466.223 105.099 466.93H103.459C103.399 466.57 103.259 466.24 103.039 465.94C102.826 465.64 102.542 465.4 102.189 465.22C101.836 465.04 101.422 464.95 100.949 464.95C100.062 464.95 99.3424 465.27 98.7891 465.91C98.2357 466.55 97.9591 467.53 97.9591 468.85C97.9591 470.043 98.2124 471 98.7191 471.72C99.2324 472.433 99.9857 472.79 100.979 472.79C101.452 472.79 101.862 472.7 102.209 472.52C102.562 472.333 102.846 472.09 103.059 471.79C103.272 471.483 103.409 471.157 103.469 470.81H105.079C104.992 471.503 104.759 472.103 104.379 472.61C103.999 473.117 103.512 473.51 102.919 473.79C102.332 474.063 101.672 474.2 100.939 474.2C100.012 474.2 99.1891 473.997 98.4691 473.59C97.7557 473.183 97.1957 472.583 96.7891 471.79C96.3824 470.997 96.1791 470.023 96.1791 468.87C96.1791 467.79 96.3624 466.847 96.7291 466.04C97.1024 465.227 97.6424 464.593 98.3491 464.14C99.0624 463.687 99.9257 463.46 100.939 463.46ZM111.72 463.46C112.46 463.46 113.127 463.603 113.72 463.89C114.314 464.17 114.797 464.57 115.17 465.09C115.55 465.61 115.787 466.223 115.88 466.93H114.24C114.18 466.57 114.04 466.24 113.82 465.94C113.607 465.64 113.324 465.4 112.97 465.22C112.617 465.04 112.204 464.95 111.73 464.95C110.844 464.95 110.124 465.27 109.57 465.91C109.017 466.55 108.74 467.53 108.74 468.85C108.74 470.043 108.994 471 109.5 471.72C110.014 472.433 110.767 472.79 111.76 472.79C112.234 472.79 112.644 472.7 112.99 472.52C113.344 472.333 113.627 472.09 113.84 471.79C114.054 471.483 114.19 471.157 114.25 470.81H115.86C115.774 471.503 115.54 472.103 115.16 472.61C114.78 473.117 114.294 473.51 113.7 473.79C113.114 474.063 112.454 474.2 111.72 474.2C110.794 474.2 109.97 473.997 109.25 473.59C108.537 473.183 107.977 472.583 107.57 471.79C107.164 470.997 106.96 470.023 106.96 468.87C106.96 467.79 107.144 466.847 107.51 466.04C107.884 465.227 108.424 464.593 109.13 464.14C109.844 463.687 110.707 463.46 111.72 463.46ZM122.492 474.2C121.538 474.2 120.705 473.997 119.992 473.59C119.278 473.177 118.725 472.573 118.332 471.78C117.938 470.987 117.742 470.017 117.742 468.87C117.742 467.79 117.925 466.843 118.292 466.03C118.658 465.217 119.195 464.587 119.902 464.14C120.615 463.687 121.478 463.46 122.492 463.46C123.445 463.46 124.272 463.67 124.972 464.09C125.678 464.503 126.225 465.113 126.612 465.92C126.998 466.727 127.192 467.71 127.192 468.87C127.192 469.923 127.012 470.85 126.652 471.65C126.298 472.45 125.772 473.077 125.072 473.53C124.378 473.977 123.518 474.2 122.492 474.2ZM122.492 472.74C123.112 472.74 123.635 472.583 124.062 472.27C124.488 471.957 124.812 471.507 125.032 470.92C125.252 470.333 125.362 469.637 125.362 468.83C125.362 468.09 125.265 467.427 125.072 466.84C124.878 466.247 124.568 465.777 124.142 465.43C123.722 465.083 123.172 464.91 122.492 464.91C121.865 464.91 121.335 465.067 120.902 465.38C120.468 465.687 120.138 466.133 119.912 466.72C119.692 467.307 119.582 468.01 119.582 468.83C119.582 469.557 119.682 470.217 119.882 470.81C120.082 471.403 120.395 471.873 120.822 472.22C121.248 472.567 121.805 472.74 122.492 472.74ZM133.236 474.2C132.696 474.193 132.186 474.117 131.706 473.97C131.233 473.817 130.813 473.593 130.446 473.3C130.08 473.007 129.79 472.643 129.576 472.21C129.37 471.77 129.266 471.26 129.266 470.68V463.66H131.116V470.49C131.116 471.163 131.323 471.71 131.736 472.13C132.156 472.55 132.786 472.76 133.626 472.76C134.386 472.76 134.996 472.563 135.456 472.17C135.923 471.77 136.156 471.177 136.156 470.39V463.66H137.996V474H136.526L136.336 472.02C136.21 472.54 135.993 472.96 135.686 473.28C135.386 473.6 135.023 473.837 134.596 473.99C134.176 474.137 133.723 474.207 133.236 474.2ZM141.018 474V463.66H142.808V465.16C142.975 464.873 143.205 464.603 143.498 464.35C143.798 464.097 144.158 463.893 144.578 463.74C145.005 463.587 145.495 463.51 146.048 463.51C146.702 463.51 147.302 463.64 147.848 463.9C148.402 464.16 148.842 464.567 149.168 465.12C149.502 465.667 149.668 466.373 149.668 467.24V474H147.818V467.42C147.818 466.613 147.605 466.017 147.178 465.63C146.758 465.237 146.212 465.04 145.538 465.04C145.072 465.04 144.635 465.117 144.228 465.27C143.822 465.417 143.492 465.643 143.238 465.95C142.985 466.25 142.858 466.63 142.858 467.09V474H141.018ZM157.326 465.01H154.996V471.44C154.996 471.807 155.033 472.077 155.106 472.25C155.186 472.417 155.316 472.523 155.496 472.57C155.683 472.617 155.936 472.64 156.256 472.64H157.386V473.88C157.26 473.927 157.066 473.967 156.806 474C156.553 474.033 156.236 474.05 155.856 474.05C155.143 474.05 154.59 473.953 154.196 473.76C153.803 473.567 153.526 473.28 153.366 472.9C153.213 472.52 153.136 472.053 153.136 471.5V465.01H151.456V463.66H153.186L153.636 460.65H154.996V463.65H157.326V465.01ZM166.593 463.66V474H164.803V463.66H166.593ZM166.633 459.55V461.47H164.743V459.55H166.633ZM173.516 474.2C172.796 474.2 172.126 474.09 171.506 473.87C170.893 473.643 170.383 473.293 169.976 472.82C169.57 472.34 169.313 471.73 169.206 470.99H170.886C170.98 471.397 171.146 471.737 171.386 472.01C171.633 472.277 171.94 472.48 172.306 472.62C172.673 472.753 173.073 472.82 173.506 472.82C174.2 472.82 174.76 472.69 175.186 472.43C175.613 472.17 175.826 471.77 175.826 471.23C175.826 470.85 175.713 470.547 175.486 470.32C175.266 470.087 174.923 469.917 174.456 469.81L172.316 469.28C171.483 469.08 170.816 468.767 170.316 468.34C169.816 467.913 169.566 467.317 169.566 466.55C169.56 465.943 169.703 465.41 169.996 464.95C170.29 464.49 170.73 464.127 171.316 463.86C171.903 463.593 172.633 463.46 173.506 463.46C174.626 463.46 175.53 463.713 176.216 464.22C176.91 464.72 177.27 465.457 177.296 466.43H175.666C175.6 465.937 175.376 465.547 174.996 465.26C174.623 464.967 174.12 464.82 173.486 464.82C172.826 464.82 172.29 464.953 171.876 465.22C171.463 465.48 171.256 465.887 171.256 466.44C171.256 466.807 171.403 467.097 171.696 467.31C171.99 467.517 172.423 467.69 172.996 467.83L175.066 468.35C175.546 468.477 175.94 468.643 176.246 468.85C176.56 469.057 176.806 469.287 176.986 469.54C177.173 469.793 177.303 470.06 177.376 470.34C177.456 470.613 177.496 470.877 177.496 471.13C177.496 471.763 177.336 472.31 177.016 472.77C176.703 473.223 176.25 473.577 175.656 473.83C175.07 474.077 174.356 474.2 173.516 474.2ZM195.979 468.49C195.979 469.657 195.789 470.67 195.409 471.53C195.029 472.383 194.412 473.043 193.559 473.51C192.712 473.97 191.589 474.2 190.189 474.2C188.782 474.2 187.656 473.967 186.809 473.5C185.962 473.027 185.349 472.357 184.969 471.49C184.596 470.623 184.409 469.59 184.409 468.39V459.54H187.379V468.61C187.379 469.69 187.639 470.48 188.159 470.98C188.679 471.473 189.356 471.72 190.189 471.72C190.742 471.72 191.232 471.613 191.659 471.4C192.086 471.18 192.419 470.843 192.659 470.39C192.906 469.93 193.029 469.337 193.029 468.61V459.54H195.979V468.49ZM204.312 474.2C203.598 474.2 202.898 474.11 202.212 473.93C201.525 473.75 200.898 473.48 200.332 473.12C199.765 472.76 199.295 472.31 198.922 471.77C198.555 471.23 198.335 470.597 198.262 469.87H201.252C201.352 470.31 201.542 470.68 201.822 470.98C202.102 471.28 202.455 471.51 202.882 471.67C203.308 471.83 203.782 471.91 204.302 471.91C204.835 471.91 205.322 471.843 205.762 471.71C206.202 471.577 206.555 471.377 206.822 471.11C207.088 470.837 207.222 470.497 207.222 470.09C207.222 469.723 207.112 469.423 206.892 469.19C206.678 468.957 206.388 468.767 206.022 468.62C205.655 468.473 205.238 468.353 204.772 468.26L202.272 467.75C201.178 467.543 200.312 467.11 199.672 466.45C199.032 465.783 198.702 464.897 198.682 463.79C198.675 462.883 198.915 462.1 199.402 461.44C199.895 460.773 200.562 460.26 201.402 459.9C202.248 459.54 203.195 459.36 204.242 459.36C205.488 459.36 206.535 459.557 207.382 459.95C208.235 460.337 208.882 460.863 209.322 461.53C209.768 462.19 209.998 462.927 210.012 463.74H207.082C207.028 463.233 206.875 462.83 206.622 462.53C206.368 462.23 206.042 462.013 205.642 461.88C205.248 461.747 204.798 461.68 204.292 461.68C203.905 461.68 203.552 461.723 203.232 461.81C202.918 461.897 202.652 462.02 202.432 462.18C202.212 462.333 202.042 462.517 201.922 462.73C201.802 462.943 201.742 463.183 201.742 463.45C201.742 463.87 201.882 464.21 202.162 464.47C202.442 464.73 202.965 464.943 203.732 465.11L206.212 465.62C207.098 465.793 207.802 466.05 208.322 466.39C208.848 466.73 209.242 467.113 209.502 467.54C209.768 467.967 209.942 468.403 210.022 468.85C210.108 469.29 210.152 469.697 210.152 470.07C210.152 470.85 209.905 471.553 209.412 472.18C208.925 472.8 208.245 473.293 207.372 473.66C206.498 474.02 205.478 474.2 204.312 474.2ZM222.437 474.2C220.704 474.2 219.297 473.853 218.217 473.16C217.137 472.46 216.517 471.383 216.357 469.93L219.397 469.87C219.557 470.53 219.901 471.033 220.427 471.38C220.961 471.72 221.627 471.89 222.427 471.89C222.907 471.89 223.331 471.813 223.697 471.66C224.071 471.5 224.364 471.287 224.577 471.02C224.791 470.747 224.897 470.437 224.897 470.09C224.897 469.557 224.727 469.16 224.387 468.9C224.047 468.633 223.524 468.42 222.817 468.26L220.447 467.75C219.347 467.53 218.464 467.093 217.797 466.44C217.137 465.78 216.801 464.897 216.787 463.79C216.781 462.883 217.024 462.1 217.517 461.44C218.017 460.773 218.694 460.26 219.547 459.9C220.407 459.54 221.371 459.36 222.437 459.36C223.531 459.36 224.474 459.557 225.267 459.95C226.067 460.337 226.681 460.86 227.107 461.52C227.541 462.173 227.751 462.897 227.737 463.69L224.787 463.74C224.694 463.1 224.481 462.597 224.147 462.23C223.814 461.863 223.261 461.68 222.487 461.68C222.087 461.68 221.731 461.723 221.417 461.81C221.104 461.897 220.834 462.02 220.607 462.18C220.381 462.333 220.207 462.517 220.087 462.73C219.974 462.943 219.917 463.183 219.917 463.45C219.917 463.87 220.057 464.203 220.337 464.45C220.624 464.69 221.161 464.913 221.947 465.12L224.277 465.69C225.591 466.003 226.537 466.54 227.117 467.3C227.704 468.06 227.997 468.983 227.997 470.07C227.997 470.903 227.767 471.63 227.307 472.25C226.854 472.87 226.211 473.35 225.377 473.69C224.544 474.03 223.564 474.2 222.437 474.2ZM221.187 457.47H223.717V460.07H221.187V457.47ZM221.137 473.31H223.657V475.91H221.137V473.31ZM232.42 474V463.17H229.84V461.52C230.667 461.52 231.334 461.443 231.84 461.29C232.354 461.13 232.737 460.903 232.99 460.61C233.244 460.31 233.394 459.953 233.44 459.54H235.38V474H232.42ZM243.995 459.34C245.715 459.34 247.072 459.983 248.065 461.27C249.058 462.55 249.555 464.393 249.555 466.8C249.555 469.193 249.065 471.03 248.085 472.31C247.105 473.583 245.742 474.22 243.995 474.22C242.242 474.22 240.872 473.583 239.885 472.31C238.905 471.037 238.415 469.203 238.415 466.81C238.415 465.21 238.642 463.853 239.095 462.74C239.548 461.627 240.192 460.783 241.025 460.21C241.858 459.63 242.848 459.34 243.995 459.34ZM243.995 471.83C244.855 471.83 245.485 471.447 245.885 470.68C246.285 469.907 246.485 468.617 246.485 466.81C246.485 464.963 246.282 463.64 245.875 462.84C245.468 462.04 244.838 461.64 243.985 461.64C243.132 461.64 242.495 462.043 242.075 462.85C241.662 463.657 241.455 464.977 241.455 466.81C241.455 468.61 241.662 469.897 242.075 470.67C242.488 471.443 243.128 471.83 243.995 471.83ZM257.798 459.54H260.668V468.35H262.898V470.8H260.668V474H257.858L257.868 470.8H251.208V468.4L257.798 459.54ZM253.908 468.35H257.868V463.05L253.908 468.35ZM264.463 474V470.82H267.663V474H264.463ZM275.053 474.22C274.153 474.22 273.313 474.047 272.533 473.7C271.753 473.353 271.117 472.867 270.623 472.24C270.13 471.607 269.853 470.867 269.793 470.02H272.573C272.693 470.58 272.96 471.037 273.373 471.39C273.787 471.737 274.307 471.91 274.933 471.91C275.627 471.91 276.233 471.747 276.753 471.42C277.28 471.093 277.673 470.573 277.933 469.86C278.2 469.147 278.293 468.213 278.213 467.06C278.027 467.413 277.767 467.723 277.433 467.99C277.107 468.25 276.723 468.453 276.283 468.6C275.843 468.74 275.353 468.81 274.813 468.81C273.833 468.81 272.963 468.627 272.203 468.26C271.45 467.887 270.857 467.36 270.423 466.68C269.997 465.993 269.783 465.18 269.783 464.24C269.783 463.293 270.01 462.45 270.463 461.71C270.917 460.97 271.55 460.39 272.363 459.97C273.177 459.55 274.13 459.34 275.223 459.34C276.45 459.34 277.507 459.633 278.393 460.22C279.287 460.8 279.97 461.627 280.443 462.7C280.923 463.767 281.163 465.023 281.163 466.47C281.163 468.197 280.917 469.637 280.423 470.79C279.937 471.937 279.237 472.797 278.323 473.37C277.41 473.937 276.32 474.22 275.053 474.22ZM275.313 466.49C275.72 466.49 276.113 466.4 276.493 466.22C276.88 466.033 277.197 465.8 277.443 465.52C277.69 465.24 277.813 464.95 277.813 464.65C277.82 464.003 277.717 463.45 277.503 462.99C277.297 462.523 277.003 462.167 276.623 461.92C276.25 461.673 275.813 461.55 275.313 461.55C274.853 461.55 274.443 461.657 274.083 461.87C273.723 462.083 273.44 462.383 273.233 462.77C273.027 463.157 272.923 463.603 272.923 464.11C272.923 464.863 273.143 465.45 273.583 465.87C274.023 466.283 274.6 466.49 275.313 466.49ZM288.448 459.34C290.168 459.34 291.525 459.983 292.518 461.27C293.512 462.55 294.008 464.393 294.008 466.8C294.008 469.193 293.518 471.03 292.538 472.31C291.558 473.583 290.195 474.22 288.448 474.22C286.695 474.22 285.325 473.583 284.338 472.31C283.358 471.037 282.868 469.203 282.868 466.81C282.868 465.21 283.095 463.853 283.548 462.74C284.002 461.627 284.645 460.783 285.478 460.21C286.312 459.63 287.302 459.34 288.448 459.34ZM288.448 471.83C289.308 471.83 289.938 471.447 290.338 470.68C290.738 469.907 290.938 468.617 290.938 466.81C290.938 464.963 290.735 463.64 290.328 462.84C289.922 462.04 289.292 461.64 288.438 461.64C287.585 461.64 286.948 462.043 286.528 462.85C286.115 463.657 285.908 464.977 285.908 466.81C285.908 468.61 286.115 469.897 286.528 470.67C286.942 471.443 287.582 471.83 288.448 471.83ZM295.979 474V471.64H298.179V474H295.979Z" fill="#36536B"/>
</g>
</g>
<defs>
<filter id="filter0_d_0_4910" x="5.13574" y="0" width="531.071" height="984.31" filterUnits="userSpaceOnUse" color-interpolation-filters="sRGB">
<feFlood flood-opacity="0" result="BackgroundImageFix"/>
<feColorMatrix in="SourceAlpha" type="matrix" values="0 0 0 0 0 0 0 0 0 0 0 0 0 0 0 0 0 0 127 0" result="hardAlpha"/>
<feOffset dy="4"/>
<feGaussianBlur stdDeviation="2"/>
<feComposite in2="hardAlpha" operator="out"/>
<feColorMatrix type="matrix" values="0 0 0 0 0 0 0 0 0 0 0 0 0 0 0 0 0 0 0.25 0"/>
<feBlend mode="normal" in2="BackgroundImageFix" result="effect1_dropShadow_0_4910"/>
<feBlend mode="normal" in="SourceGraphic" in2="effect1_dropShadow_0_4910" result="shape"/>
</filter>
<filter id="filter1_d_0_4910" x="0" y="203.113" width="541" height="214.874" filterUnits="userSpaceOnUse" color-interpolation-filters="sRGB">
<feFlood flood-opacity="0" result="BackgroundImageFix"/>
<feColorMatrix in="SourceAlpha" type="matrix" values="0 0 0 0 0 0 0 0 0 0 0 0 0 0 0 0 0 0 127 0" result="hardAlpha"/>
<feOffset dy="4"/>
<feGaussianBlur stdDeviation="2"/>
<feComposite in2="hardAlpha" operator="out"/>
<feColorMatrix type="matrix" values="0 0 0 0 0 0 0 0 0 0 0 0 0 0 0 0 0 0 0.25 0"/>
<feBlend mode="normal" in2="BackgroundImageFix" result="effect1_dropShadow_0_4910"/>
<feBlend mode="normal" in="SourceGraphic" in2="effect1_dropShadow_0_4910" result="shape"/>
</filter>
<filter id="filter2_d_0_4910" x="30.1484" y="24.8889" width="482" height="946" filterUnits="userSpaceOnUse" color-interpolation-filters="sRGB">
<feFlood flood-opacity="0" result="BackgroundImageFix"/>
<feColorMatrix in="SourceAlpha" type="matrix" values="0 0 0 0 0 0 0 0 0 0 0 0 0 0 0 0 0 0 127 0" result="hardAlpha"/>
<feOffset dy="4"/>
<feGaussianBlur stdDeviation="2"/>
<feComposite in2="hardAlpha" operator="out"/>
<feColorMatrix type="matrix" values="0 0 0 0 0 0 0 0 0 0 0 0 0 0 0 0 0 0 0.25 0"/>
<feBlend mode="normal" in2="BackgroundImageFix" result="effect1_dropShadow_0_4910"/>
<feBlend mode="normal" in="SourceGraphic" in2="effect1_dropShadow_0_4910" result="shape"/>
</filter>
<filter id="filter3_d_0_4910" x="42" y="324" width="496" height="234" filterUnits="userSpaceOnUse" color-interpolation-filters="sRGB">
<feFlood flood-opacity="0" result="BackgroundImageFix"/>
<feColorMatrix in="SourceAlpha" type="matrix" values="0 0 0 0 0 0 0 0 0 0 0 0 0 0 0 0 0 0 127 0" result="hardAlpha"/>
<feMorphology radius="10" operator="erode" in="SourceAlpha" result="effect1_dropShadow_0_4910"/>
<feOffset dx="10" dy="10"/>
<feGaussianBlur stdDeviation="12.5"/>
<feColorMatrix type="matrix" values="0 0 0 0 0.212302 0 0 0 0 0.32521 0 0 0 0 0.419299 0 0 0 0.25 0"/>
<feBlend mode="normal" in2="BackgroundImageFix" result="effect1_dropShadow_0_4910"/>
<feBlend mode="normal" in="SourceGraphic" in2="effect1_dropShadow_0_4910" result="shape"/>
</filter>
<linearGradient id="paint0_linear_0_4910" x1="28.0293" y1="0" x2="28.0293" y2="24.6479" gradientUnits="userSpaceOnUse">
<stop stop-color="#454545"/>
<stop offset="0.226279" stop-color="#999999"/>
<stop offset="1" stop-color="white"/>
</linearGradient>
<linearGradient id="paint1_linear_0_4910" x1="528.207" y1="171.495" x2="509.285" y2="171.495" gradientUnits="userSpaceOnUse">
<stop stop-color="white" stop-opacity="0.01"/>
<stop offset="0.222178" stop-color="#BABABA"/>
<stop offset="0.54678" stop-color="white" stop-opacity="0.01"/>
<stop offset="1" stop-color="white" stop-opacity="0.01"/>
</linearGradient>
<linearGradient id="paint2_linear_0_4910" x1="13.136" y1="170.974" x2="32.0881" y2="170.974" gradientUnits="userSpaceOnUse">
<stop stop-color="white" stop-opacity="0.01"/>
<stop offset="0.222178" stop-color="#BABABA"/>
<stop offset="0.54678" stop-color="white" stop-opacity="0.01"/>
<stop offset="1" stop-color="white" stop-opacity="0.01"/>
</linearGradient>
<linearGradient id="paint3_linear_0_4910" x1="77.8139" y1="49.7778" x2="77.8139" y2="972.538" gradientUnits="userSpaceOnUse">
<stop stop-color="#9CB6CD"/>
<stop offset="0.420564" stop-color="#9AB3CA"/>
<stop offset="0.716592" stop-color="#557496"/>
<stop offset="1" stop-color="#475178"/>
</linearGradient>
<clipPath id="clip0_0_4910">
<rect width="233" height="465" fill="white" transform="translate(38.1484 24.8889) scale(2)"/>
</clipPath>
<clipPath id="clip1_0_4910">
<rect width="218" height="87" fill="white" transform="translate(52 334) scale(2)"/>
</clipPath>
<clipPath id="clip2_0_4910">
<rect width="187" height="11" fill="white" transform="translate(84 366) scale(2)"/>
</clipPath>
</defs>
</svg>
